<?xml version="1.0" standalone="no"?>
<!DOCTYPE svg PUBLIC "-//W3C//DTD SVG 20010904//EN"
 "http://www.w3.org/TR/2001/REC-SVG-20010904/DTD/svg10.dtd">
<svg version="1.0" xmlns="http://www.w3.org/2000/svg"
 width="720.000000pt" height="720.000000pt" viewBox="0 0 720.000000 720.000000"
 preserveAspectRatio="xMidYMid meet">
<metadata>
Created by potrace 1.16, written by Peter Selinger 2001-2019
</metadata>
<g transform="translate(0.000000,720.000000) scale(0.100000,-0.100000)"
fill="#000000" stroke="none">
<path d="M1628 4013 c-51 -124 -71 -169 -79 -178 -5 -5 -9 -15 -9 -22 0 -8 -5
-19 -10 -26 -6 -7 -31 -43 -57 -81 -25 -38 -58 -83 -72 -99 -46 -52 -140 -147
-146 -147 -3 0 -17 -11 -30 -25 -13 -15 -26 -22 -29 -17 -3 5 7 22 22 38 15
17 45 53 67 82 21 29 43 52 47 52 4 0 8 6 8 14 0 7 7 19 15 26 8 7 15 21 15
32 0 17 -3 18 -15 8 -8 -7 -15 -18 -15 -25 0 -7 -7 -15 -15 -19 -8 -3 -15 -10
-15 -16 0 -13 -72 -79 -87 -80 -7 0 -13 -5 -13 -11 0 -5 -15 -17 -32 -25 -18
-9 -51 -26 -73 -39 -22 -13 -47 -24 -56 -24 -9 -1 -22 -7 -28 -15 -7 -8 -27
-18 -44 -22 -18 -3 -43 -12 -57 -19 -33 -17 -154 -54 -159 -49 -2 2 16 23 40
47 75 74 104 110 147 177 23 36 45 70 49 75 4 6 15 26 24 45 49 105 53 110 89
116 49 8 100 27 100 36 0 4 7 8 15 8 8 0 15 5 15 10 0 12 -15 13 -38 1 -87
-44 -273 -66 -427 -51 -71 6 -107 16 -165 43 -81 38 -136 88 -142 126 -4 31
-28 40 -28 11 0 -38 65 -115 124 -145 11 -6 30 -16 41 -22 61 -33 142 -45 288
-41 81 1 147 2 147 1 0 -3 -51 -98 -63 -118 -65 -105 -100 -156 -131 -188 -20
-21 -36 -42 -36 -47 0 -4 -10 -14 -22 -23 -13 -8 -41 -31 -62 -50 -38 -34 -69
-46 -125 -48 -26 -1 -26 -1 4 -10 33 -11 97 -1 210 33 84 25 176 59 190 70 5
4 16 8 25 8 10 0 27 9 40 20 34 29 52 26 44 -7 -4 -16 -9 -31 -13 -35 -8 -9
-89 -55 -123 -70 -24 -11 -40 -38 -22 -38 14 0 92 41 103 54 28 34 26 2 -6
-91 -19 -54 -38 -110 -43 -124 -4 -15 -16 -44 -25 -65 -40 -93 -45 -105 -45
-116 0 -11 -14 -43 -96 -215 -40 -82 -96 -178 -124 -210 -5 -7 -10 -15 -10
-18 0 -7 -103 -139 -112 -143 -4 -2 -30 -35 -59 -73 -28 -38 -55 -69 -60 -69
-5 0 -9 -6 -9 -14 0 -8 -4 -16 -9 -18 -13 -4 -121 -144 -121 -156 0 -6 -7 -12
-15 -16 -8 -3 -15 -12 -15 -19 0 -8 -7 -21 -16 -28 -9 -7 -20 -22 -25 -34 -5
-11 -18 -33 -29 -50 -27 -43 -86 -163 -105 -215 -63 -176 -84 -328 -68 -501
10 -111 43 -253 63 -273 6 -6 10 -15 10 -22 0 -14 34 -86 66 -139 13 -22 27
-48 30 -58 4 -9 10 -17 14 -17 5 0 11 -8 14 -17 4 -10 24 -38 46 -62 22 -25
40 -45 40 -45 0 -1 -79 -81 -175 -180 -163 -165 -189 -196 -167 -196 5 0 84
79 176 175 92 96 173 175 180 175 31 0 34 -22 7 -63 -16 -23 -36 -58 -47 -77
-10 -19 -24 -42 -30 -50 -30 -38 -152 -290 -141 -290 12 0 57 62 57 78 0 9 69
144 98 192 12 19 27 47 33 63 6 15 15 27 20 27 5 0 9 6 9 13 0 6 11 25 23 41
l23 29 21 -22 c31 -33 126 -102 132 -95 3 3 -4 14 -16 24 -127 103 -180 155
-239 235 -16 22 -32 42 -36 43 -5 2 -8 10 -8 17 0 7 -4 15 -8 17 -7 3 -31 42
-79 133 -58 108 -109 357 -100 483 15 218 98 453 227 647 46 68 160 216 180
235 10 8 36 41 60 73 23 31 46 57 51 57 5 0 9 7 9 15 0 9 7 18 15 21 8 4 15
12 15 20 0 8 4 14 8 14 5 0 24 22 43 50 19 27 37 50 42 50 4 0 7 6 7 14 0 8 4
16 8 18 13 5 92 136 92 152 0 8 3 16 8 18 10 4 69 129 107 228 9 25 26 62 36
83 11 22 19 47 19 56 0 9 4 21 8 26 5 6 19 42 31 80 12 39 31 93 41 120 11 28
22 62 25 78 4 19 12 27 26 27 15 0 19 -5 15 -17 -7 -21 -21 -90 -40 -191 -8
-40 -18 -78 -24 -85 -5 -6 -15 -28 -20 -47 -13 -44 -31 -96 -49 -137 -7 -17
-13 -34 -13 -38 0 -4 -9 -26 -19 -49 -10 -23 -26 -61 -36 -86 -9 -25 -23 -58
-30 -75 -27 -64 -63 -152 -75 -185 -15 -42 -24 -64 -90 -205 -101 -217 -114
-247 -168 -395 -54 -148 -114 -378 -136 -520 -19 -126 -27 -295 -17 -345 l9
-40 1 55 c5 162 40 406 77 536 8 28 14 57 14 65 0 15 67 229 88 279 5 14 18
45 27 70 10 25 31 74 47 110 17 36 39 85 50 110 21 47 28 62 45 95 6 11 18 38
28 60 9 22 24 52 31 67 8 14 14 32 14 40 0 7 9 31 19 53 11 22 27 60 36 85 19
48 32 80 60 145 10 22 35 89 55 148 33 95 43 115 52 105 1 -2 -3 -28 -9 -58
-20 -91 -43 -244 -43 -279 0 -18 -5 -41 -10 -51 -6 -11 -14 -61 -19 -112 -5
-52 -16 -132 -24 -178 -13 -72 -34 -239 -51 -405 -2 -22 -9 -87 -15 -145 -6
-58 -15 -154 -19 -215 -8 -100 -12 -118 -51 -200 -24 -49 -55 -117 -71 -150
-63 -136 -159 -322 -209 -405 -32 -54 -42 -81 -36 -101 6 -18 35 -16 35 3 0
11 51 81 62 86 5 2 8 10 8 17 0 7 7 15 15 19 8 3 15 12 15 21 0 8 4 15 9 15 4
0 30 28 56 61 27 34 59 73 72 87 13 14 33 40 44 59 24 38 39 35 39 -8 0 -18 4
-28 10 -24 6 4 10 79 10 193 0 105 7 239 15 307 8 65 15 144 15 175 0 30 7
111 15 180 33 263 57 438 71 515 8 44 14 95 14 114 0 18 7 70 15 115 33 180
63 361 85 511 5 39 17 108 25 154 8 45 13 87 10 91 -6 10 60 61 69 53 3 -4 6
-85 6 -182 0 -172 25 -614 35 -631 3 -5 12 -50 20 -102 8 -51 20 -113 26 -138
30 -124 43 -168 56 -205 9 -22 19 -53 24 -70 11 -43 63 -184 82 -225 9 -19 28
-62 42 -95 39 -86 51 -112 94 -190 12 -22 30 -57 38 -77 9 -21 19 -38 24 -38
4 0 12 -12 18 -28 12 -29 12 -31 84 -140 26 -41 47 -76 47 -79 0 -3 16 -25 35
-49 19 -23 35 -47 35 -53 0 -7 7 -14 15 -17 8 -4 15 -10 15 -14 0 -10 56 -75
125 -147 168 -173 193 -201 275 -312 22 -30 44 -57 48 -60 4 -4 21 -26 37 -51
17 -25 33 -47 38 -48 4 -2 7 -8 7 -13 0 -5 15 -31 33 -57 17 -26 41 -65 52
-87 11 -22 22 -42 25 -45 4 -3 25 -45 49 -95 61 -127 78 -159 90 -163 6 -2 4
13 -5 35 -22 55 -121 253 -144 288 -11 17 -24 39 -30 50 -6 11 -18 32 -28 46
-9 14 -30 46 -46 70 -37 55 -166 224 -203 265 -79 88 -101 119 -153 224 -23
47 -48 97 -56 112 -8 14 -14 33 -14 41 0 8 -7 28 -15 43 -8 16 -15 37 -15 47
0 10 -9 46 -20 80 -50 158 -108 501 -119 706 -4 76 -10 106 -20 109 -11 4 -13
-10 -7 -79 19 -237 52 -471 82 -575 8 -28 14 -60 14 -71 0 -11 6 -39 14 -64 8
-24 26 -84 42 -134 15 -49 31 -97 35 -105 23 -47 50 -123 46 -133 -2 -6 -23
15 -46 46 -24 31 -47 57 -52 57 -5 0 -9 6 -9 14 0 8 -7 16 -15 20 -8 3 -15 12
-15 20 0 8 -3 16 -7 18 -13 5 -63 76 -63 87 0 6 -4 11 -8 11 -5 0 -14 10 -21
22 -14 28 -28 50 -66 108 -36 57 -68 116 -162 305 -41 83 -81 163 -88 178 -8
16 -15 34 -15 40 0 7 -7 25 -16 42 -8 16 -31 79 -51 140 -20 60 -44 132 -54
159 -11 27 -19 59 -19 71 0 12 -7 42 -15 65 -8 23 -15 54 -15 68 0 14 -6 53
-14 86 -8 34 -19 135 -26 226 -6 91 -15 197 -20 235 -6 39 -10 159 -11 267
l-1 197 69 68 c64 63 153 171 180 218 25 44 91 182 108 225 9 25 21 55 26 68
11 28 11 32 1 32 -5 0 -16 -17 -24 -37z m-453 -573 c-20 -38 -35 -46 -35 -19
0 23 30 60 42 52 5 -2 1 -17 -7 -33z m-293 -2192 c-2 -46 -9 -89 -15 -96 -8
-10 -7 -16 2 -22 9 -5 10 -9 2 -14 -6 -4 -17 -22 -25 -39 -8 -18 -42 -66 -77
-108 -81 -97 -122 -148 -132 -165 -9 -16 -27 -19 -27 -5 0 5 6 16 13 23 22 23
217 407 217 428 0 13 33 80 39 80 3 0 4 -37 3 -82z"/>
</g>
</svg>
