<?xml version="1.0" standalone="no"?>
<!DOCTYPE svg PUBLIC "-//W3C//DTD SVG 20010904//EN"
 "http://www.w3.org/TR/2001/REC-SVG-20010904/DTD/svg10.dtd">
<svg version="1.0" xmlns="http://www.w3.org/2000/svg"
 width="720.000000pt" height="720.000000pt" viewBox="0 0 720.000000 720.000000"
 preserveAspectRatio="xMidYMid meet">
<metadata>
Created by potrace 1.16, written by Peter Selinger 2001-2019
</metadata>
<g transform="translate(0.000000,720.000000) scale(0.100000,-0.100000)"
fill="#000000" stroke="none">
<path d="M3715 6895 c-149 -13 -281 -31 -330 -45 -16 -5 -57 -13 -90 -19 -33
-5 -77 -17 -97 -25 -21 -9 -46 -16 -57 -16 -26 0 -230 -68 -258 -86 -12 -8
-27 -14 -33 -14 -5 0 -39 -13 -73 -30 -35 -16 -67 -30 -72 -30 -4 0 -33 -15
-64 -34 -31 -18 -77 -45 -102 -59 -59 -32 -91 -50 -103 -59 -154 -110 -320
-269 -430 -413 -38 -49 -75 -95 -83 -101 -7 -6 -13 -14 -13 -16 0 -6 -103
-165 -118 -183 -8 -10 -48 -74 -88 -143 -32 -55 -194 -376 -194 -385 0 -4 -16
-42 -35 -83 -19 -41 -35 -78 -35 -83 0 -5 -6 -22 -14 -38 -16 -32 -27 -64 -62
-178 -14 -44 -32 -93 -40 -108 -8 -16 -14 -33 -14 -39 0 -6 -9 -32 -21 -57
-12 -25 -27 -59 -34 -76 -44 -105 -114 -236 -132 -248 -7 -4 -13 -12 -13 -17
0 -18 -78 -95 -152 -150 -68 -51 -102 -71 -203 -114 -62 -27 -162 -55 -217
-62 -32 -3 -58 -10 -58 -15 0 -14 91 -10 135 6 22 8 48 15 57 15 37 0 231 95
298 146 62 48 170 157 170 173 0 5 6 14 13 18 19 12 105 176 122 233 4 14 17
39 30 55 12 17 27 50 33 75 5 25 16 61 23 80 21 60 45 133 64 190 9 30 33 88
51 128 19 40 34 77 34 83 0 5 4 17 9 27 6 9 20 40 32 67 20 48 27 62 48 103 5
9 20 41 32 70 13 28 27 52 31 52 5 0 8 8 8 18 0 10 8 27 18 38 9 11 26 37 37
59 11 22 34 61 52 87 18 26 33 50 33 53 0 3 16 28 35 55 19 27 54 78 78 113
55 80 127 171 138 175 5 2 9 8 9 13 0 15 173 198 232 244 96 76 194 145 206
145 3 0 13 6 21 14 23 20 212 116 306 155 194 80 195 80 470 149 168 42 484
82 654 82 109 0 380 -34 413 -51 9 -5 26 -9 38 -9 12 0 36 -6 53 -14 76 -35
109 -45 174 -51 66 -7 107 -19 188 -55 22 -10 76 -32 120 -50 44 -17 98 -40
121 -51 23 -10 48 -19 57 -19 8 0 17 -3 19 -7 2 -5 31 -21 65 -38 35 -16 63
-33 63 -37 0 -3 12 -11 28 -17 28 -11 63 -31 72 -42 3 -3 20 -14 38 -24 17
-11 32 -23 32 -27 0 -4 6 -8 14 -8 8 0 16 -3 18 -7 2 -5 21 -20 43 -35 22 -15
55 -41 73 -58 18 -16 36 -30 38 -30 10 0 244 -238 244 -249 0 -5 7 -14 16 -19
20 -11 95 -117 162 -227 68 -112 174 -334 207 -435 10 -30 26 -74 37 -97 10
-24 18 -48 18 -55 0 -7 6 -30 14 -53 8 -22 21 -67 29 -100 9 -33 25 -94 36
-137 12 -42 21 -83 21 -91 0 -9 -21 -19 -57 -27 -32 -7 -75 -22 -96 -32 -41
-21 -100 -74 -110 -100 -3 -10 -14 -18 -24 -18 -10 0 -31 -7 -47 -15 -36 -19
-55 -19 -62 0 -18 45 -195 121 -281 119 -71 -2 -77 -13 -70 -129 4 -62 14
-120 27 -153 11 -29 20 -72 20 -97 0 -47 23 -118 47 -147 15 -17 17 -24 28
-123 9 -86 13 -102 31 -119 21 -22 69 -20 134 5 30 11 69 25 85 31 17 6 46 23
66 39 30 23 43 27 73 22 22 -3 38 -12 41 -24 18 -55 121 -181 169 -206 27 -14
30 -13 58 14 17 15 34 38 39 51 12 32 29 18 29 -24 0 -34 16 -110 47 -229 29
-111 100 -286 146 -360 42 -68 109 -145 128 -145 5 0 9 -4 9 -10 0 -11 66 -48
125 -70 22 -8 42 -19 43 -25 4 -20 -65 -33 -176 -34 -103 -1 -117 1 -162 25
-28 14 -53 30 -56 35 -7 12 -34 12 -34 0 0 -6 18 -20 40 -32 22 -13 40 -27 40
-32 0 -12 -39 2 -72 24 -14 11 -29 19 -32 19 -8 0 -64 49 -95 84 -14 16 -32
35 -38 42 -7 7 -13 17 -13 23 0 6 -4 11 -9 11 -5 0 -14 15 -22 33 -7 17 -16
34 -19 37 -8 6 -50 94 -50 103 0 4 -8 26 -19 50 -19 42 -37 95 -61 175 -7 23
-19 42 -25 42 -8 0 -5 -24 12 -77 37 -120 77 -223 85 -223 5 0 8 -7 8 -16 0
-37 97 -183 166 -249 19 -19 43 -62 64 -115 18 -47 41 -94 51 -106 11 -11 19
-24 19 -28 0 -14 74 -83 93 -87 10 -2 18 -8 17 -14 -1 -13 -73 -10 -125 6 -69
20 -179 71 -217 101 -40 31 -44 16 -6 -20 35 -34 102 -72 128 -72 8 0 29 -8
45 -19 26 -15 33 -29 48 -97 11 -43 25 -101 32 -129 8 -27 21 -79 31 -115 28
-108 54 -203 68 -250 8 -25 21 -70 30 -100 38 -126 118 -362 140 -415 13 -29
30 -73 62 -157 9 -24 25 -61 35 -84 10 -23 19 -46 19 -52 0 -6 7 -23 14 -39
24 -45 83 -251 97 -338 28 -161 14 -382 -32 -516 -10 -31 -19 -61 -19 -68 0
-6 -13 -40 -30 -74 -16 -35 -30 -69 -30 -75 0 -7 -4 -12 -8 -12 -5 0 -15 -12
-23 -27 -21 -42 -82 -127 -96 -136 -17 -10 -17 -27 0 -27 14 0 29 18 88 105
54 81 59 89 65 108 4 9 10 17 15 17 15 0 70 -61 107 -120 38 -58 58 -54 22 5
-21 34 -16 47 8 23 9 -9 12 -9 12 0 0 17 -39 54 -50 47 -13 -8 -40 23 -40 47
0 11 -10 28 -22 38 l-23 18 23 46 c12 26 22 56 22 67 0 11 5 30 11 41 6 12 17
66 25 122 32 239 0 482 -92 694 -8 18 -14 40 -14 48 0 9 -6 28 -14 42 -8 15
-26 56 -41 92 -14 36 -30 73 -36 82 -5 10 -9 24 -9 32 0 8 -6 27 -14 43 -15
30 -25 57 -63 173 -13 41 -31 88 -39 103 -8 16 -14 35 -14 42 0 7 -14 55 -31
107 -17 51 -34 111 -38 133 -11 51 -29 123 -52 205 -28 103 -79 310 -79 323 0
3 29 4 63 3 58 -1 97 12 97 33 0 3 -19 15 -41 26 -41 19 -102 81 -120 120 -5
11 -13 27 -18 35 -23 37 -49 98 -44 103 3 3 24 -5 46 -17 59 -33 96 -40 116
-23 20 17 101 11 101 -8 0 -9 -10 -10 -45 -2 -25 6 -48 7 -52 4 -11 -12 2 -17
66 -23 50 -6 61 -4 59 7 -2 10 14 15 57 20 33 4 76 13 94 20 36 13 121 66 121
76 0 3 -15 2 -34 -1 -40 -8 -139 23 -194 60 -44 30 -130 119 -143 148 -5 12
-21 41 -35 66 -38 68 -79 170 -112 285 -35 117 -44 157 -53 225 -4 36 -11 84
-15 108 -6 40 1 78 28 153 13 37 15 111 2 116 -7 2 -13 -19 -17 -57 -3 -33
-10 -67 -16 -74 -7 -8 -14 -38 -18 -67 -13 -111 -78 -201 -122 -167 -24 19
-49 47 -94 106 -34 45 -41 62 -41 100 -1 42 1 47 19 44 11 -2 32 -4 48 -3 17
0 27 -5 27 -14 0 -30 52 -17 87 21 37 41 38 46 6 38 -12 -4 -23 -16 -25 -28
-2 -15 -11 -22 -33 -24 -24 -3 -28 -1 -17 9 22 23 13 29 -48 29 l-60 0 0 30
c0 23 7 35 30 49 39 23 120 33 188 22 43 -7 52 -6 48 5 -3 7 3 18 12 23 15 9
17 28 14 173 -1 104 -8 190 -19 238 -16 73 -43 120 -69 120 -12 0 -44 91 -44
127 0 16 -19 83 -52 178 -5 17 -14 46 -18 65 -9 38 -22 78 -50 150 -10 25 -26
65 -35 90 -10 25 -23 59 -30 75 -8 17 -31 71 -52 120 -21 50 -58 119 -81 155
-24 36 -48 75 -53 88 -5 12 -13 22 -19 22 -5 0 -10 5 -10 11 0 32 -213 271
-347 390 -53 46 -207 164 -248 189 -22 13 -42 26 -45 29 -5 6 -19 14 -99 59
-25 14 -55 31 -66 38 -11 8 -26 14 -35 14 -8 0 -26 9 -40 20 -14 11 -31 20
-38 20 -8 0 -30 7 -50 16 -21 9 -52 22 -70 30 -18 8 -37 14 -43 14 -6 0 -23 8
-37 18 -39 27 -216 82 -263 82 -22 0 -56 7 -77 16 -38 16 -125 44 -202 64 -62
17 -308 40 -410 38 -47 0 -148 -6 -225 -13z m2763 -2157 c22 -46 32 -105 32
-199 0 -53 4 -119 10 -147 10 -54 0 -110 -22 -124 -7 -4 -23 -8 -35 -8 -24 0
-140 37 -158 50 -5 4 -21 11 -34 15 -47 14 -66 42 -63 92 2 48 15 73 39 73 16
0 68 33 96 62 24 25 45 23 22 -2 -10 -11 -15 -20 -11 -20 13 0 62 29 75 43 10
13 9 16 -7 21 -31 10 -134 -4 -159 -22 -36 -27 -26 -34 16 -12 22 11 42 16 45
11 4 -5 -14 -19 -39 -31 -25 -12 -47 -26 -51 -31 -8 -14 -24 0 -24 22 0 11 -9
38 -20 59 l-20 40 20 20 c11 11 20 25 20 30 0 6 5 10 12 10 6 0 20 8 30 17 23
20 127 50 179 52 28 1 38 -4 47 -21z m-585 -79 c34 -17 70 -38 79 -47 10 -9
26 -25 36 -34 22 -21 45 -88 30 -88 -5 0 -22 8 -36 18 -15 10 -48 24 -74 31
-43 12 -48 12 -77 -10 -35 -26 -35 -38 0 -56 32 -17 79 -16 98 0 24 21 107 -5
115 -36 4 -17 8 -19 18 -9 10 10 10 17 0 32 -6 11 -12 30 -12 44 0 13 -7 29
-16 37 -14 11 -13 15 8 31 13 9 40 18 60 18 34 0 39 -4 53 -36 18 -45 20 -133
3 -139 -7 -3 -35 -6 -62 -9 -37 -2 -55 -9 -69 -27 -21 -25 -34 -26 -82 -4 -16
7 -58 16 -92 20 -55 6 -64 4 -83 -15 -19 -19 -21 -31 -18 -86 2 -35 0 -64 -4
-64 -11 0 -28 62 -28 103 0 22 -7 63 -15 91 -27 96 -45 185 -45 226 l0 40 76
0 c64 0 84 -5 137 -31z m60 -146 c20 -12 2 -23 -38 -23 -32 0 -45 4 -45 14 0
8 6 16 13 19 12 5 54 -1 70 -10z m248 -167 c28 -25 71 -52 99 -61 28 -9 50
-20 50 -23 0 -4 -26 -15 -57 -24 -50 -14 -60 -15 -84 -2 -16 8 -38 14 -51 14
-14 0 -41 18 -67 45 -43 43 -44 45 -27 64 10 11 30 22 45 24 14 2 30 5 35 6 4
0 30 -19 57 -43z m-238 2 c69 -22 144 -91 159 -144 13 -49 4 -56 -48 -34 -51
22 -64 24 -64 10 0 -10 84 -50 106 -50 26 0 16 -48 -13 -67 -16 -10 -30 -20
-33 -24 -3 -3 -14 -8 -25 -12 -11 -3 -53 -19 -94 -36 -87 -37 -106 -38 -125
-8 -15 25 -32 323 -21 370 7 25 9 26 54 20 25 -3 72 -14 104 -25z m258 -144
c14 -12 15 -22 8 -50 -6 -19 -7 -39 -4 -44 4 -6 0 -17 -8 -25 -21 -20 -73 -5
-69 21 5 40 5 50 -3 88 l-8 39 33 -7 c19 -3 41 -13 51 -22z m473 -1235 c-3 -5
-10 -7 -15 -3 -5 3 -7 10 -3 15 3 5 10 7 15 3 5 -3 7 -10 3 -15z"/>
<path d="M5958 4240 c-28 -31 -31 -58 -8 -70 19 -10 20 -8 18 22 -2 24 1 33
12 33 22 1 41 15 35 26 -10 14 -38 9 -57 -11z"/>
<path d="M5877 4032 c-10 -10 -17 -22 -17 -26 0 -9 49 27 50 37 0 13 -17 7
-33 -11z"/>
<path d="M3765 6850 c-33 -5 -96 -14 -140 -19 -44 -5 -109 -16 -145 -25 -36
-8 -103 -23 -150 -32 -159 -31 -240 -64 -240 -96 0 -9 -6 -18 -12 -21 -21 -7
43 -64 80 -72 44 -9 40 -1 -13 31 -25 14 -45 30 -45 34 0 20 13 40 26 40 8 0
14 4 14 9 0 13 23 20 160 47 69 13 141 28 160 33 33 9 129 27 195 37 205 30
534 25 653 -11 26 -8 61 -15 77 -14 29 0 29 0 -10 15 -93 36 -479 64 -610 44z"/>
<path d="M4440 6781 c0 -6 3 -10 8 -9 10 3 51 -21 75 -43 11 -10 24 -16 29
-13 9 6 -58 64 -73 64 -4 0 -14 3 -23 6 -9 3 -16 1 -16 -5z"/>
<path d="M4598 6713 c-43 -11 -11 -21 73 -22 60 -1 101 -7 121 -17 16 -8 37
-13 46 -11 13 3 12 6 -8 14 -83 36 -178 50 -232 36z"/>
<path d="M4960 6610 c14 -11 30 -20 36 -20 7 0 47 -18 90 -40 80 -41 89 -46
159 -90 22 -14 52 -31 68 -39 15 -8 27 -18 27 -23 0 -4 8 -8 18 -8 12 1 6 11
-23 35 -22 19 -43 35 -47 35 -4 0 -26 13 -50 29 -24 16 -79 46 -123 66 -44 21
-96 46 -116 57 -48 24 -71 23 -39 -2z"/>
<path d="M3160 6539 c-24 -16 -47 -33 -50 -38 -3 -4 -13 -10 -22 -14 -20 -7
-25 -27 -7 -27 9 0 76 45 89 61 3 3 13 8 23 12 9 3 17 13 17 22 0 19 3 20 -50
-16z"/>
<path d="M3250 6544 c0 -13 3 -14 15 -4 8 7 25 10 39 6 14 -3 28 -2 31 4 4 6
-11 10 -39 10 -36 0 -46 -4 -46 -16z"/>
<path d="M2694 6532 c-165 -90 -218 -122 -222 -133 -2 -5 -8 -9 -14 -9 -37 0
-357 -291 -449 -410 -66 -85 -197 -283 -234 -355 -9 -16 -33 -61 -55 -100 -60
-108 -180 -351 -180 -366 0 -12 -32 -89 -50 -119 -20 -33 -50 -103 -50 -117 0
-8 -7 -28 -16 -44 -8 -17 -14 -40 -12 -52 3 -17 6 -14 17 18 7 22 28 72 46
110 18 39 43 93 55 120 29 65 85 178 116 234 13 24 24 50 24 57 0 7 8 18 18
23 9 6 14 11 10 11 -6 0 27 57 50 85 4 6 17 25 27 43 11 17 22 32 26 32 4 0 9
7 13 15 10 27 -9 15 -34 -21 -13 -20 -26 -32 -28 -26 -3 10 9 33 62 122 15 25
29 53 33 63 3 9 9 17 14 17 5 0 9 6 9 13 0 7 9 23 20 35 11 12 20 26 20 31 0
6 6 14 13 18 6 4 20 24 30 43 10 19 33 53 52 75 93 107 196 215 249 260 32 28
67 58 77 68 11 9 23 17 28 17 5 0 11 7 15 15 3 8 16 20 28 25 25 11 109 59
136 78 9 7 55 37 102 68 47 31 89 60 95 65 15 15 -7 10 -41 -9z"/>
<path d="M3355 6539 c-11 -17 0 -20 21 -4 17 13 17 14 2 15 -9 0 -20 -5 -23
-11z"/>
<path d="M3442 6532 c-26 -4 -65 -38 -75 -65 -5 -12 8 -6 38 19 l45 36 51 -16
c36 -12 55 -14 62 -7 12 12 3 16 -58 29 -22 4 -50 6 -63 4z"/>
<path d="M3731 6523 c-19 -8 -51 -36 -51 -45 0 -11 59 25 65 40 2 6 3 12 2 11
-1 0 -8 -3 -16 -6z"/>
<path d="M3035 6515 c-5 -1 -44 -8 -85 -15 -113 -18 -247 -55 -327 -91 -24
-10 -48 -19 -54 -19 -6 0 -23 -10 -37 -21 l-27 -22 30 7 c17 4 43 14 59 22 16
8 38 14 48 14 11 0 32 8 46 19 15 10 48 21 74 25 26 4 50 11 53 17 4 5 20 9
36 9 17 0 39 5 49 10 11 6 52 14 91 18 43 4 74 12 77 20 3 11 -10 14 -33 7z"/>
<path d="M3723 6435 c-29 -28 -53 -55 -53 -59 0 -7 53 27 76 49 13 13 37 56
32 59 -2 2 -27 -20 -55 -49z"/>
<path d="M3894 6457 c-12 -18 -25 -44 -29 -57 l-7 -25 26 24 c14 14 26 30 26
36 0 21 34 45 50 35 15 -9 30 -4 30 11 0 5 -17 9 -37 9 -32 0 -41 -6 -59 -33z"/>
<path d="M3410 6452 c0 -23 126 -29 155 -8 17 12 8 14 -68 15 -48 1 -87 -3
-87 -7z"/>
<path d="M4410 6396 c0 -10 16 -15 51 -18 28 -1 53 0 56 5 2 4 -14 7 -36 7
-22 0 -43 5 -46 10 -9 15 -25 12 -25 -4z"/>
<path d="M4244 6370 c-1 -24 1 -28 12 -19 17 14 18 49 2 49 -7 0 -13 -13 -14
-30z"/>
<path d="M4570 6382 c0 -12 60 -22 135 -22 47 1 56 3 42 11 -24 14 -177 24
-177 11z"/>
<path d="M4824 6347 c10 -7 39 -31 64 -55 24 -23 46 -41 49 -39 6 7 -19 57
-27 52 -4 -2 -19 9 -34 25 -15 17 -36 30 -49 29 -21 0 -21 -1 -3 -12z"/>
<path d="M4436 6327 c3 -10 18 -15 40 -14 34 1 50 17 17 17 -10 0 -28 3 -41 6
-17 5 -21 3 -16 -9z"/>
<path d="M4573 6305 c2 -5 14 -11 28 -13 13 -1 50 -7 82 -14 35 -6 62 -7 67
-2 6 6 -29 15 -85 24 -60 10 -94 12 -92 5z"/>
<path d="M5220 6313 c1 -13 69 -52 75 -43 3 4 -11 17 -31 29 -38 23 -44 25
-44 14z"/>
<path d="M5237 6224 c15 -20 29 -32 31 -26 5 15 -30 61 -46 62 -8 0 -2 -14 15
-36z"/>
<path d="M5060 6215 c0 -9 6 -15 13 -14 6 1 19 0 27 -3 58 -21 145 -47 148
-44 10 11 -99 56 -135 56 -12 0 -25 5 -28 10 -9 15 -25 12 -25 -5z"/>
<path d="M3350 6145 c-8 -9 -8 -15 -2 -15 12 0 26 19 19 26 -2 2 -10 -2 -17
-11z"/>
<path d="M5480 6122 c0 -11 102 -72 144 -86 20 -7 44 -20 55 -30 10 -10 22
-13 25 -8 8 13 -7 24 -84 62 -36 18 -77 41 -92 51 -27 20 -48 25 -48 11z"/>
<path d="M6602 6100 c-23 -11 -42 -26 -42 -34 0 -11 10 -9 45 11 25 13 51 22
57 20 8 -3 6 -6 -4 -6 -10 -1 -18 -6 -18 -12 0 -7 -8 -18 -17 -25 -10 -7 -15
-16 -11 -19 13 -13 35 3 51 34 14 29 14 32 -2 40 -12 7 -30 4 -59 -9z"/>
<path d="M3512 5918 c-21 -46 -47 -103 -56 -128 -10 -25 -24 -60 -32 -78 -8
-18 -14 -41 -14 -51 0 -10 -8 -40 -18 -67 -11 -27 -27 -74 -37 -104 -19 -61
-46 -117 -93 -200 -33 -56 -173 -339 -210 -420 -11 -25 -34 -75 -51 -113 -17
-37 -31 -74 -31 -81 0 -8 -4 -17 -10 -21 -5 -3 -14 -20 -19 -38 -5 -18 -19
-57 -31 -87 -35 -88 -91 -242 -101 -275 -4 -16 -21 -68 -37 -115 -41 -119 -72
-231 -72 -258 0 -15 -8 -26 -24 -32 -36 -13 -44 -32 -11 -24 40 10 28 -17 -14
-31 -17 -6 -36 -17 -40 -24 -5 -7 -14 -10 -20 -7 -6 4 -9 12 -5 17 3 6 5 107
5 224 -2 243 15 418 65 645 8 36 14 75 14 86 0 12 7 41 16 65 8 24 19 64 24
89 5 25 18 77 30 115 12 39 25 84 29 100 4 17 15 46 23 65 18 43 38 98 45 125
5 19 12 37 54 130 35 78 124 260 130 265 3 3 16 25 30 50 13 25 30 51 37 59 8
8 18 24 23 35 5 12 16 31 25 44 15 20 15 22 0 22 -9 0 -20 -10 -25 -23 -5 -13
-16 -29 -25 -36 -9 -7 -16 -19 -16 -25 0 -7 -5 -17 -12 -24 -19 -19 -72 -115
-139 -252 -63 -130 -65 -136 -94 -210 -9 -25 -25 -65 -35 -90 -10 -25 -26 -72
-35 -105 -10 -33 -24 -75 -31 -93 -8 -18 -14 -41 -14 -52 0 -11 -8 -43 -19
-72 -10 -29 -26 -87 -34 -128 -42 -199 -47 -227 -47 -249 0 -13 -9 -60 -19
-105 -41 -170 -78 -526 -69 -657 5 -69 5 -71 -21 -81 -14 -6 -43 -19 -64 -30
-22 -11 -42 -16 -47 -12 -30 31 -71 331 -71 520 0 79 -3 145 -8 148 -27 17
-11 -442 18 -517 6 -16 11 -42 11 -58 0 -17 5 -39 10 -50 6 -10 15 -38 20 -61
5 -24 21 -74 35 -113 15 -38 29 -79 32 -90 2 -11 9 -29 13 -40 19 -41 52 -141
59 -175 4 -19 13 -44 19 -55 6 -11 22 -45 36 -75 25 -55 74 -146 89 -165 4 -5
28 -37 52 -69 25 -32 71 -83 103 -112 52 -49 55 -54 32 -54 -56 0 -254 120
-316 190 -12 14 -34 39 -48 55 -68 77 -134 189 -183 310 -36 90 -45 119 -55
185 -13 87 -27 110 -28 44 0 -73 37 -195 99 -324 42 -86 58 -112 119 -192 24
-32 40 -58 37 -58 -3 0 6 -11 20 -24 15 -14 25 -32 23 -41 -3 -15 -6 -14 -30
4 -31 25 -38 26 -38 6 0 -8 7 -15 15 -15 8 0 15 -4 15 -10 0 -5 6 -10 14 -10
21 0 56 -48 56 -77 0 -13 7 -35 16 -48 9 -13 13 -29 9 -35 -8 -13 -59 23 -128
92 -27 26 -53 48 -58 48 -5 0 -9 5 -9 11 0 6 -13 28 -28 48 -30 37 -49 101
-32 101 6 0 10 -4 10 -9 0 -15 61 -72 71 -66 5 3 -5 19 -21 35 -17 16 -30 34
-30 40 0 5 -5 10 -10 10 -6 0 -18 16 -27 35 -9 19 -20 35 -25 35 -4 0 -8 4 -8
10 0 5 -13 31 -29 58 -47 80 -100 258 -116 397 -13 105 -27 188 -40 245 -10
43 -15 120 -15 228 0 101 -4 162 -10 162 -14 0 -13 -283 1 -385 6 -44 17 -109
26 -145 8 -36 19 -92 23 -125 21 -161 56 -314 95 -416 22 -56 30 -68 37 -55
14 26 28 9 28 -35 0 -24 -4 -38 -10 -34 -5 3 -10 15 -10 27 0 13 -5 18 -14 15
-25 -10 -63 85 -146 355 -11 37 -20 80 -20 96 0 16 -6 69 -14 118 -30 183 -39
438 -26 687 6 127 18 268 25 312 8 44 16 102 20 130 3 27 11 77 19 110 7 33
21 96 30 140 10 44 22 94 27 112 5 17 16 57 25 89 8 32 19 63 23 68 5 6 11 25
14 41 7 42 74 220 108 287 11 22 11 38 1 38 -8 0 -23 -31 -68 -137 -8 -17 -14
-37 -14 -45 0 -7 -6 -22 -14 -33 -7 -11 -16 -31 -19 -45 -3 -14 -17 -57 -30
-96 -54 -151 -115 -437 -154 -714 -24 -174 -24 -733 0 -895 9 -60 19 -155 21
-210 6 -113 26 -228 50 -295 8 -25 16 -53 16 -62 0 -10 6 -32 14 -50 8 -18 24
-58 36 -88 13 -30 25 -57 29 -60 3 -3 21 -26 39 -52 44 -64 20 -64 -44 -1 -79
77 -126 138 -145 186 -6 15 -15 27 -20 27 -5 0 -9 5 -9 11 0 6 -13 39 -29 73
-43 90 -97 264 -125 406 -38 192 -49 351 -43 627 4 148 8 277 9 288 2 11 -1
21 -7 23 -29 7 -37 -517 -12 -733 9 -77 21 -156 27 -175 5 -19 10 -49 10 -66
0 -17 6 -50 13 -75 8 -24 24 -78 36 -119 13 -41 28 -88 35 -105 25 -59 48
-110 62 -135 7 -14 19 -37 25 -52 6 -16 15 -28 20 -28 5 0 9 -5 9 -11 0 -10
41 -69 66 -96 13 -14 26 -47 48 -128 26 -91 98 -258 155 -360 30 -53 104 -162
136 -200 13 -16 30 -37 37 -45 54 -65 150 -160 184 -183 45 -29 304 -283 304
-296 0 -5 7 -15 17 -22 24 -20 115 -137 143 -184 13 -22 26 -42 29 -45 19 -17
111 -202 111 -223 0 -7 7 -22 15 -34 25 -36 52 -141 70 -274 14 -103 15 -142
6 -215 -11 -94 -54 -272 -75 -314 -7 -14 -21 -43 -31 -65 -9 -22 -21 -47 -26
-55 -5 -8 -15 -28 -24 -45 -17 -35 -31 -57 -63 -102 l-23 -33 36 0 c32 0 35 2
29 24 -4 16 3 37 22 67 30 47 54 94 74 147 26 66 33 47 27 -70 -4 -63 -11
-127 -16 -141 -8 -20 -7 -27 2 -27 7 0 18 24 24 52 16 69 19 231 5 236 -7 2
-6 17 3 45 8 23 17 54 20 70 3 15 11 27 18 27 7 0 28 16 47 35 19 19 29 35 24
35 -6 0 -19 -9 -29 -20 -18 -20 -45 -27 -45 -12 0 4 17 25 38 45 37 36 39 37
55 19 9 -10 17 -22 17 -26 0 -4 6 -13 13 -20 49 -52 80 -103 67 -111 -6 -3
-10 -36 -10 -73 0 -71 -16 -237 -26 -278 -4 -17 -2 -24 9 -24 20 0 42 130 42
257 0 70 4 103 11 103 7 0 26 -28 44 -63 48 -93 55 -105 73 -125 10 -10 17
-21 17 -24 0 -4 18 -38 41 -77 33 -57 45 -71 65 -71 13 0 24 5 24 10 0 6 7 10
15 10 8 0 15 -4 15 -10 0 -5 7 -10 16 -10 10 0 14 5 10 15 -12 32 33 299 60
362 8 17 14 39 14 50 0 10 7 41 16 68 8 28 19 74 24 103 9 50 7 56 -15 80 -14
15 -25 32 -25 39 0 7 -4 13 -9 13 -5 0 -14 14 -21 30 -7 17 -16 30 -21 30 -5
0 -9 9 -9 19 0 11 -4 21 -9 23 -20 7 -161 285 -161 317 0 10 -5 21 -45 114 -9
21 -25 43 -36 50 -28 18 -24 23 28 36 37 10 48 9 55 -1 11 -17 60 -118 93
-193 36 -82 117 -239 179 -348 22 -40 26 -56 21 -90 l-6 -42 19 37 c20 38 34
100 21 92 -4 -2 -10 0 -14 5 -3 6 3 15 14 20 10 6 24 25 30 43 6 17 17 39 24
47 7 9 21 36 31 61 10 25 26 63 36 85 9 22 24 56 33 75 99 225 238 447 378
605 15 17 48 55 75 85 47 55 99 110 228 243 37 39 63 73 57 75 -12 4 -164
-147 -281 -279 -36 -40 -82 -91 -102 -113 -21 -22 -38 -44 -38 -48 0 -4 -16
-24 -35 -45 -19 -21 -38 -46 -41 -55 -3 -10 -10 -18 -15 -18 -5 0 -9 -7 -9
-15 0 -8 -4 -15 -9 -15 -5 0 -12 -8 -15 -18 -4 -10 -14 -27 -24 -38 -9 -10
-28 -39 -41 -64 -14 -25 -27 -47 -30 -50 -3 -3 -13 -19 -22 -35 -8 -17 -25
-48 -36 -70 -12 -22 -33 -65 -47 -95 -15 -30 -30 -62 -35 -70 -10 -18 -36 -74
-53 -115 -21 -49 -24 209 -3 290 8 34 15 68 15 76 0 29 52 176 93 259 45 94
129 227 176 278 17 18 31 35 31 37 0 13 181 180 229 212 31 21 65 45 76 54 11
10 58 37 105 61 53 27 107 65 145 100 32 32 63 58 68 58 4 0 24 12 43 26 33
25 56 39 132 79 63 33 230 215 272 295 7 14 16 27 19 30 3 3 16 25 29 50 12
25 28 56 36 70 17 31 39 81 61 140 9 25 24 61 32 80 15 35 36 107 54 185 6 22
12 48 15 58 3 9 1 17 -4 17 -6 0 -18 -26 -27 -57 -9 -32 -25 -80 -35 -108 -10
-27 -27 -80 -39 -118 -11 -37 -25 -75 -30 -85 -105 -211 -120 -239 -137 -253
-8 -6 -14 -16 -14 -21 0 -27 -154 -201 -227 -257 -60 -46 -62 -22 -2 30 73 64
111 118 186 264 32 61 34 67 29 72 -9 9 -24 -7 -45 -49 -56 -114 -105 -172
-201 -244 -118 -88 -204 -117 -345 -118 -134 -1 -200 23 -106 38 40 6 94 30
119 54 7 6 17 12 20 12 4 0 25 16 47 35 22 19 43 35 47 35 3 0 23 26 44 58 20
31 53 73 73 93 64 64 161 190 161 209 0 5 4 10 9 10 9 0 112 204 144 285 32
80 87 243 87 257 0 8 6 34 14 59 19 62 37 160 47 259 4 47 11 113 15 148 4 37
3 62 -3 62 -5 0 -17 -62 -27 -137 -9 -76 -24 -169 -32 -208 -8 -38 -14 -78
-14 -88 0 -16 -22 -93 -55 -187 -7 -19 -18 -53 -25 -75 -23 -77 -168 -375
-182 -375 -4 0 -8 -5 -8 -11 0 -10 -30 -53 -75 -108 -70 -86 -201 -201 -227
-201 -6 0 31 43 81 96 50 53 91 103 91 110 0 8 4 14 9 14 9 0 24 26 96 170 34
68 39 80 66 155 33 94 33 95 15 95 -9 0 -18 -12 -22 -27 -22 -102 -125 -318
-194 -408 -40 -53 -143 -145 -185 -165 -58 -28 -67 -21 -18 16 21 16 53 43 71
61 18 18 37 33 42 33 6 0 10 5 10 10 0 6 -6 10 -12 10 -18 -1 -48 -25 -48 -39
0 -6 -3 -11 -8 -11 -4 0 -21 -12 -38 -27 -69 -62 -124 -92 -221 -119 -60 -16
-100 -14 -88 6 3 5 14 10 24 10 20 0 131 76 131 91 0 5 5 9 10 9 6 0 18 8 28
18 10 10 27 25 38 33 33 25 154 187 154 208 0 4 9 16 20 26 11 10 20 26 20 36
0 10 4 20 9 23 5 3 11 16 15 29 3 13 17 45 32 70 l26 47 58 -45 c31 -24 60
-41 64 -38 7 7 -83 93 -97 93 -11 0 -2 80 12 107 33 65 98 325 125 498 49 317
59 448 53 741 -4 269 -18 411 -64 669 -14 77 -28 158 -31 179 -4 22 -13 41
-19 44 -16 5 -16 -7 1 -77 67 -275 99 -730 80 -1114 -17 -326 -43 -493 -119
-772 -7 -27 -16 -65 -20 -82 -4 -18 -11 -35 -16 -38 -5 -4 -9 -17 -9 -31 0
-13 -5 -24 -11 -24 -6 0 -8 -9 -4 -20 10 -33 -18 -23 -44 15 -37 55 -58 42
-24 -16 10 -16 23 -29 30 -29 25 0 13 -54 -33 -143 -8 -16 -14 -35 -14 -43 0
-22 -20 -6 -37 30 -29 63 -72 127 -98 146 -11 8 -21 14 -22 12 -2 -1 -21 18
-43 42 -31 33 -58 50 -116 71 -69 25 -77 26 -91 12 -14 -13 -14 -19 -3 -31 7
-9 18 -16 24 -16 6 -1 29 -9 51 -20 22 -11 45 -20 50 -20 6 -1 21 -14 35 -31
18 -21 24 -39 21 -64 -2 -33 -1 -35 28 -35 26 0 31 -4 31 -24 0 -34 -37 -147
-57 -176 -19 -27 -69 -35 -77 -13 -3 8 2 13 13 13 10 0 24 7 31 16 11 13 10
19 -8 36 -16 17 -24 19 -35 10 -11 -9 -18 -6 -36 14 -21 24 -23 25 -47 9 -27
-17 -85 -17 -91 1 -2 5 7 10 19 11 50 1 58 4 58 21 0 25 -46 44 -71 29 -10 -6
-19 -20 -19 -29 0 -21 -13 -23 -29 -4 -9 10 -8 16 4 26 8 7 15 19 15 26 0 21
-81 67 -117 68 -18 1 -33 3 -33 6 0 43 25 132 45 162 34 51 21 72 -37 63 -44
-8 -52 9 -13 27 23 10 29 8 58 -20 18 -18 38 -32 43 -32 6 0 19 -9 29 -20 25
-28 55 -26 55 3 0 13 -5 28 -11 34 -13 13 -59 122 -59 139 0 18 21 22 75 13
28 -4 74 -8 103 -8 30 -1 66 -7 80 -14 15 -8 45 -22 67 -33 22 -10 42 -21 45
-24 13 -14 80 -60 86 -60 12 0 32 -34 27 -47 -7 -19 -17 -16 -54 17 -19 16
-40 30 -46 30 -7 0 -13 3 -13 8 0 22 -186 95 -232 90 -29 -3 -33 -6 -34 -36
-1 -29 3 -35 30 -47 94 -39 115 -50 163 -81 28 -19 57 -34 64 -34 6 0 31 -16
55 -35 43 -35 43 -35 58 -14 16 24 36 18 36 -11 0 -10 7 -25 15 -34 8 -8 15
-26 15 -40 0 -22 16 -44 25 -34 5 4 -42 153 -56 180 -5 10 -9 25 -9 34 0 13 6
11 26 -10 27 -26 44 -33 44 -18 0 11 -44 52 -56 52 -17 1 -40 45 -42 82 -2 20
-9 56 -17 79 -8 23 -15 51 -15 62 0 11 -8 50 -19 86 -10 36 -26 113 -35 171
-10 58 -23 141 -31 185 -8 44 -16 102 -19 128 -3 27 -12 78 -20 115 -18 83
-46 320 -46 387 0 77 -22 265 -32 265 -4 0 -8 -6 -8 -12 1 -49 22 -423 26
-463 3 -27 9 -133 13 -235 9 -201 22 -318 52 -450 10 -47 19 -92 19 -100 0
-26 -30 13 -40 51 -4 19 -18 59 -30 89 -12 30 -25 69 -30 85 -4 17 -14 48 -23
70 -37 99 -117 449 -117 513 0 19 -6 86 -14 150 -13 106 -30 475 -29 612 0 30
4 142 8 248 6 141 5 192 -4 192 -6 0 -11 -1 -11 -2 0 -2 -3 -68 -6 -148 -4
-92 -15 -185 -29 -255 -86 -405 -121 -778 -112 -1175 6 -307 36 -515 84 -585
7 -11 13 -28 13 -38 0 -20 38 -97 54 -108 5 -4 5 -12 1 -19 -6 -10 -10 -9 -17
4 -5 9 -14 16 -21 16 -17 1 -104 84 -168 160 -30 36 -56 67 -59 70 -11 10 -90
141 -90 149 0 4 -12 30 -26 57 -36 67 -52 125 -60 212 -4 40 -11 75 -15 78
-22 13 1 -244 23 -260 8 -6 31 -45 51 -86 54 -109 78 -150 88 -150 5 0 9 -5 9
-10 0 -12 13 -29 49 -65 l25 -24 -30 -12 c-16 -6 -24 -13 -16 -16 7 -3 19 0
27 7 8 6 19 9 25 5 10 -6 -43 -55 -60 -55 -4 0 -22 21 -40 48 -19 26 -38 49
-42 50 -4 2 -8 10 -8 17 0 7 -6 26 -14 42 -22 45 -46 125 -46 156 0 20 -4 27
-16 25 -17 -3 -34 43 -67 187 -45 194 -68 554 -48 760 16 165 30 277 46 365
25 134 28 163 17 156 -6 -3 -15 -30 -21 -59 -62 -305 -77 -488 -66 -821 4
-133 9 -349 10 -481 3 -177 8 -261 20 -320 9 -44 21 -98 25 -120 16 -79 20
-89 41 -110 l21 -20 -5 25 c-3 14 -10 39 -15 55 -24 67 -41 156 -51 260 -13
130 -14 292 -3 299 4 2 16 -32 27 -77 10 -45 30 -109 43 -142 13 -33 29 -73
36 -90 19 -49 76 -156 91 -172 8 -8 15 -18 15 -23 0 -4 9 -10 21 -13 12 -3 18
-10 14 -16 -7 -13 7 -15 20 -3 28 24 84 52 89 43 4 -5 -19 -24 -49 -41 -30
-17 -55 -34 -55 -37 0 -3 36 -3 80 0 44 3 80 2 80 -2 0 -4 -8 -16 -18 -27 -19
-21 -52 -136 -52 -183 0 -29 2 -31 21 -20 28 15 100 -5 117 -32 11 -17 9 -23
-13 -45 -21 -21 -31 -24 -58 -18 -18 3 -41 13 -52 20 -11 8 -22 14 -25 14 -3
0 -2 -39 2 -87 3 -49 7 -103 7 -121 1 -30 6 -35 59 -58 31 -14 65 -29 74 -35
10 -5 23 -9 30 -9 7 0 37 -10 66 -22 54 -22 54 -22 70 -2 9 11 30 26 45 34 90
45 200 299 169 389 -6 17 -7 33 -3 35 11 7 39 -27 84 -100 58 -96 58 -105 -12
-209 -60 -90 -121 -165 -135 -165 -4 0 -19 -13 -34 -28 -38 -40 -110 -93 -156
-117 -29 -15 -56 -19 -100 -18 -55 2 -59 1 -44 -13 9 -9 51 -22 95 -29 110
-18 201 -2 302 52 48 25 61 28 61 13 0 -6 -11 -15 -24 -20 -13 -5 -27 -13 -30
-19 -4 -6 -25 -15 -46 -21 -41 -11 -55 -30 -22 -30 26 0 135 40 153 56 8 8 20
14 26 14 6 0 16 7 23 15 7 8 16 12 21 9 10 -6 -47 -64 -62 -64 -5 0 -9 -4 -9
-9 0 -29 -251 -138 -290 -126 -11 3 -20 0 -24 -10 -4 -12 2 -15 29 -15 19 0
41 -8 51 -17 13 -14 40 -19 110 -23 l92 -5 -46 -55 c-141 -165 -299 -311 -366
-341 -12 -5 -28 -13 -36 -18 -50 -29 -216 -80 -410 -125 -297 -68 -447 -78
-541 -37 -30 13 -67 29 -84 36 -91 39 -271 135 -412 220 -60 35 -121 72 -138
82 -16 10 -32 20 -35 23 -3 3 -26 21 -52 40 -25 19 -59 54 -75 77 -15 24 -31
43 -35 43 -5 0 -8 5 -8 11 0 6 -6 25 -14 42 -28 65 -46 114 -67 182 -12 39
-28 87 -37 108 -11 27 -12 41 -5 48 8 8 14 5 22 -10 7 -12 16 -21 22 -21 5 0
22 -11 37 -25 15 -14 36 -28 47 -31 11 -4 27 -12 35 -19 25 -22 137 -57 171
-53 31 3 55 28 27 28 -8 0 -23 10 -35 22 -11 13 -36 37 -57 55 -35 31 -134
152 -149 183 -4 8 -16 29 -27 45 -22 34 -85 159 -100 199 -16 43 3 29 42 -32
21 -31 52 -73 69 -92 17 -19 53 -61 81 -92 47 -55 68 -70 68 -49 0 5 -15 25
-32 45 -48 51 -58 64 -58 75 0 5 -4 11 -10 13 -10 3 -48 93 -57 138 -3 14 -12
34 -19 45 -8 11 -14 30 -14 42 0 12 -10 52 -21 88 -22 65 -22 66 -3 101 10 20
31 45 47 56 15 10 27 25 27 32 0 14 55 66 70 66 5 0 10 4 10 10 0 10 39 34 46
27 2 -2 -3 -17 -11 -34 -17 -33 -35 -120 -35 -165 0 -28 1 -28 24 -13 32 21
105 16 120 -7 8 -14 6 -22 -12 -40 -17 -18 -34 -23 -72 -23 -28 0 -50 -4 -50
-10 2 -41 33 -115 69 -165 39 -53 48 -60 87 -66 65 -9 245 14 264 35 25 28 40
60 40 84 0 13 4 27 10 33 32 32 65 345 41 384 -18 27 1 31 34 6 19 -15 38 -26
42 -26 5 0 22 -13 38 -30 29 -30 52 -32 36 -2 -5 9 -32 40 -60 69 -28 29 -51
55 -51 58 0 14 25 1 57 -30 20 -19 40 -35 45 -35 4 0 8 -6 8 -12 0 -7 7 -22
15 -32 15 -19 15 -19 15 1 0 12 -7 28 -15 37 -8 8 -15 18 -15 23 0 4 -16 24
-36 43 -22 22 -33 42 -30 53 3 12 -3 21 -19 27 -13 5 -26 14 -30 19 -11 19 19
11 72 -18 57 -31 85 -26 30 6 -43 25 -104 46 -214 74 -99 25 -114 45 -27 36
30 -3 56 -2 59 3 17 27 -328 23 -420 -5 -27 -8 -51 -15 -52 -15 -13 0 12 88
76 270 7 19 16 49 21 65 10 37 27 86 50 145 10 25 33 83 50 130 30 79 56 142
83 199 14 28 88 50 169 51 26 0 48 5 50 12 2 6 9 9 15 5 7 -4 11 -70 12 -184
1 -217 33 -436 82 -562 13 -32 6 -36 -28 -18 -65 36 -126 47 -250 47 -92 0
-123 -3 -123 -12 0 -10 32 -13 128 -13 107 0 137 -4 191 -23 103 -37 92 -24
171 -197 18 -38 47 -89 66 -113 19 -25 34 -51 34 -58 0 -7 5 -16 11 -20 13 -8
11 10 -16 121 -35 142 -67 422 -63 548 3 104 18 131 31 57 39 -213 114 -427
202 -575 13 -22 27 -47 31 -55 5 -8 13 -20 18 -27 6 -6 29 -33 51 -58 47 -57
147 -135 170 -135 14 0 15 3 5 15 -7 8 -16 15 -21 15 -26 0 -219 210 -219 239
0 5 -6 16 -12 23 -22 23 -86 160 -112 238 -14 41 -29 89 -35 105 -9 29 -21 73
-55 215 -33 141 -43 540 -20 793 4 40 3 67 -3 67 -24 0 -36 -153 -39 -465 -2
-176 -6 -369 -10 -430 -8 -141 12 -410 37 -487 24 -72 25 -95 4 -78 -8 7 -15
17 -15 23 0 5 -9 28 -19 51 -55 118 -107 268 -128 371 -32 162 -56 576 -33
590 6 3 10 1 10 -5 0 -16 122 -9 128 8 3 9 -16 12 -73 12 -75 0 -77 1 -72 23
3 12 9 76 12 142 4 66 13 158 21 205 7 47 13 101 12 120 0 19 15 85 35 145 19
61 45 144 58 185 12 41 26 79 31 85 4 5 8 17 8 26 0 9 10 37 21 61 12 23 29
59 37 78 8 19 21 47 29 62 15 31 16 38 4 38 -5 0 -27 -37 -49 -82z m999 -755
c0 -93 4 -204 10 -248 5 -44 12 -124 15 -177 l7 -97 -37 6 c-29 4 -36 2 -36
-10 0 -13 7 -15 29 -11 38 8 57 -21 66 -101 4 -33 16 -96 26 -140 38 -153 50
-200 60 -230 6 -16 14 -43 18 -60 4 -16 15 -44 24 -62 10 -18 17 -40 17 -51 0
-10 4 -22 9 -27 11 -12 42 -98 37 -103 -2 -2 -26 6 -53 17 -59 25 -202 53
-245 49 -27 -3 -32 1 -41 27 -5 17 -9 206 -10 420 -1 410 5 491 55 823 15 101
25 142 35 142 10 0 13 -34 14 -167z m-1206 70 c-3 -38 -13 -106 -21 -152 -8
-46 -14 -121 -14 -166 l0 -83 -47 -5 c-27 -2 -74 -11 -106 -19 -31 -9 -59 -12
-62 -8 -2 4 9 36 26 71 16 35 36 78 44 94 15 34 92 190 114 233 23 45 61 102
67 102 4 0 3 -30 -1 -67z m1465 -859 c0 -8 -5 -12 -10 -9 -6 4 -8 11 -5 16 9
14 15 11 15 -7z m24 -131 c38 -237 72 -416 93 -493 8 -30 18 -71 20 -90 3 -19
12 -42 20 -52 28 -32 -6 -29 -54 6 -99 70 -185 95 -383 111 -14 2 -28 3 -32 4
-7 1 -14 32 -23 109 l-7 52 74 -1 c54 0 97 -9 168 -32 90 -31 96 -34 128 -82
18 -27 43 -71 55 -97 11 -27 27 -48 34 -48 11 0 11 5 0 28 -38 76 -105 414
-122 615 -10 115 9 95 29 -30z m-2224 -169 c0 -64 -3 -85 -12 -81 -19 6 -11
167 8 167 2 0 4 -39 4 -86z m-2 -197 c-4 -111 -22 -115 -26 -5 -3 88 2 118 19
101 5 -5 9 -47 7 -96z m402 68 c0 -9 -6 -15 -12 -14 -26 5 -202 -44 -224 -62
-14 -11 -29 5 -19 21 15 24 191 70 215 55 5 -3 11 -1 15 5 9 15 25 12 25 -5z
m100 0 c0 -11 -11 -15 -39 -15 -38 0 -57 10 -44 24 3 3 24 6 45 6 27 0 38 -4
38 -15z m70 -40 c30 -8 72 -17 93 -20 28 -5 37 -11 37 -26 0 -11 8 -23 18 -26
36 -13 40 -36 12 -60 -21 -19 -27 -43 -9 -43 5 0 7 -5 4 -10 -5 -8 -11 -8 -20
0 -10 8 -17 7 -27 -3 -11 -13 -18 -12 -49 3 -26 14 -57 18 -125 18 -94 -1
-124 -9 -124 -33 0 -18 -12 -16 105 -21 55 -3 104 -9 109 -14 6 -6 18 -10 27
-10 10 0 19 -5 21 -11 2 -5 12 -11 23 -13 18 -3 20 -10 19 -62 -2 -88 -18
-192 -32 -206 -7 -7 -12 -18 -12 -26 0 -8 -8 -33 -19 -56 -10 -23 -23 -53 -29
-67 -10 -27 -54 -41 -167 -54 -96 -12 -174 43 -191 134 -7 31 -5 34 14 29 18
-5 39 5 94 44 14 10 22 10 38 0 46 -28 120 -4 120 40 0 11 7 18 20 18 22 0 26
-10 10 -26 -7 -7 -2 -18 15 -34 14 -13 25 -29 25 -37 0 -9 7 -6 20 7 11 11 27
20 35 20 21 0 19 47 -3 59 -21 11 -52 -3 -52 -24 0 -9 -6 -12 -15 -9 -12 5
-13 10 -4 20 9 11 8 18 -1 29 -17 20 -50 16 -61 -8 -5 -9 -13 -25 -18 -35 -9
-19 -71 -30 -71 -13 0 17 -80 14 -86 -3 -10 -27 -104 -51 -111 -28 -3 8 5 12
24 12 41 0 107 41 111 68 6 37 -34 62 -93 60 l-50 -2 3 54 c2 34 11 65 23 82
44 63 7 84 -59 33 -24 -19 -49 -32 -53 -29 -5 3 -9 19 -9 35 0 25 4 30 23 29
40 -4 55 0 71 16 15 15 50 26 192 63 55 14 83 17 119 10 25 -5 50 -11 54 -14
5 -2 17 2 27 10 20 14 11 34 -17 38 -8 2 -20 6 -28 11 -7 5 -42 11 -77 14 -35
2 -64 9 -64 13 0 5 -13 9 -30 9 -16 0 -30 -5 -30 -10 0 -7 -6 -7 -19 0 -20 10
-41 4 -136 -41 -22 -10 -42 -19 -45 -19 -5 0 -5 22 -1 63 1 5 5 6 9 3 4 -2 26
4 48 14 23 10 64 21 92 25 28 4 58 12 67 18 21 16 144 11 215 -8z m-185 -65
c3 -5 -3 -10 -15 -10 -12 0 -18 5 -15 10 3 6 10 10 15 10 5 0 12 -4 15 -10z
m-75 -10 c0 -5 -4 -10 -10 -10 -5 0 -10 5 -10 10 0 6 5 10 10 10 6 0 10 -4 10
-10z m-40 -20 c-6 -11 -18 -20 -28 -21 -51 -2 -86 -21 -58 -32 8 -3 20 0 26 8
6 7 19 11 29 8 10 -3 22 0 25 6 4 6 19 11 33 11 34 0 103 21 103 32 0 11 83
10 114 -2 47 -17 27 -29 -49 -28 -41 0 -94 -7 -117 -15 -24 -8 -68 -23 -98
-32 -30 -10 -67 -27 -82 -37 -28 -19 -28 -19 -28 1 0 11 8 25 18 30 13 8 14
12 4 19 -17 11 -2 24 58 51 58 25 63 25 50 1z m-166 -62 c-4 -24 -11 -63 -16
-88 -5 -25 -12 -60 -15 -78 -5 -31 -7 -32 -23 -17 -10 9 -15 25 -13 39 3 14 0
48 -6 76 -12 55 -7 80 12 61 15 -15 27 -14 27 4 0 8 5 15 11 15 6 0 9 7 5 15
-3 9 0 15 9 15 12 0 14 -9 9 -42z m-105 5 c-1 -10 3 -43 10 -74 6 -31 9 -68 5
-83 -4 -19 -2 -27 10 -32 20 -8 21 -30 1 -38 -8 -3 -15 -12 -15 -21 0 -8 -4
-15 -10 -15 -5 0 -10 23 -10 50 0 28 -4 50 -8 50 -10 0 -9 111 1 127 4 6 2 13
-5 15 -14 5 -3 38 12 38 6 0 10 -8 9 -17z m605 -38 c2 -7 18 -16 35 -20 21 -4
31 -13 31 -26 0 -18 -1 -18 -38 1 -29 15 -61 20 -135 22 -63 2 -97 6 -97 14 0
19 8 21 104 22 70 0 96 -3 100 -13z m-637 -51 c3 -8 0 -27 -6 -41 -7 -15 -8
-29 -3 -32 5 -3 14 -51 20 -106 17 -148 28 -210 44 -242 8 -15 22 -43 31 -61
9 -19 17 -38 17 -43 0 -16 -20 -10 -27 9 -3 9 -12 25 -20 34 -44 51 -119 209
-168 356 -30 87 -30 88 -7 96 9 4 33 15 52 26 43 23 59 25 67 4z m2130 -30
c74 -14 248 -121 276 -170 11 -20 -11 -60 -26 -45 -8 8 -8 14 0 22 9 9 8 15
-3 27 -8 8 -18 11 -22 8 -3 -4 0 -11 7 -15 8 -6 9 -11 3 -15 -6 -3 -17 1 -25
9 -9 8 -20 15 -25 15 -12 0 -76 32 -82 41 -3 4 -17 13 -30 18 -14 6 -32 15
-40 20 -8 5 -37 18 -65 29 -38 16 -46 22 -32 27 21 9 22 25 1 25 -8 0 -12 5
-9 11 4 6 13 8 20 5 8 -3 31 -8 52 -12z m26 -150 c9 -3 17 -10 17 -15 0 -5 10
-9 23 -9 24 0 87 -61 87 -85 0 -23 -9 -18 -43 20 -17 19 -38 35 -48 35 -9 0
-22 7 -29 15 -7 8 -21 15 -32 15 -25 0 -58 18 -58 31 0 10 32 7 83 -7z m-1508
-104 c-5 -8 -11 -8 -17 -2 -6 6 -7 16 -3 22 5 8 11 8 17 2 6 -6 7 -16 3 -22z
m1635 -70 c0 -5 -4 -10 -10 -10 -5 0 -10 5 -10 10 0 6 5 10 10 10 6 0 10 -4
10 -10z m-2715 -82 c19 -64 19 -68 0 -68 -15 0 -35 57 -35 103 0 41 17 24 35
-35z m2480 -17 c0 -8 -10 -16 -22 -17 -18 -3 -23 1 -23 17 0 15 5 20 23 17 12
-2 22 -9 22 -17z m-66 -46 c27 -29 84 -34 110 -11 11 10 21 12 31 6 12 -8 12
-10 -3 -16 -25 -9 -21 -26 13 -59 17 -16 30 -36 30 -44 1 -13 2 -13 11 2 5 9
17 17 25 17 13 0 12 -4 -1 -30 -19 -36 -102 -99 -131 -100 -25 0 -104 25 -160
51 -22 10 -45 19 -52 19 -6 0 -16 9 -22 19 -13 25 -13 151 0 151 6 0 10 -6 10
-14 0 -12 4 -12 28 -2 47 22 77 35 82 35 3 0 16 -11 29 -24z m-2378 -59 c1
-34 75 -162 125 -216 17 -18 26 -46 34 -100 17 -109 59 -277 93 -370 48 -133
74 -197 89 -225 30 -51 46 -91 41 -99 -3 -5 -10 -1 -15 8 -5 9 -24 31 -42 49
-29 30 -112 149 -129 187 -4 8 -19 35 -33 60 -41 73 -134 304 -134 333 0 17 2
17 29 -2 37 -26 79 -42 85 -32 6 9 -53 131 -64 131 -4 0 -11 12 -15 27 -3 15
-10 30 -13 33 -11 8 -52 113 -52 131 0 9 -7 33 -15 52 -8 20 -15 46 -15 58 0
18 2 19 15 9 8 -7 15 -22 16 -34z m2594 14 c0 -7 -6 -15 -12 -17 -8 -3 -13 4
-13 17 0 13 5 20 13 18 6 -3 12 -11 12 -18z m-2490 -67 c3 -13 3 -23 -2 -23
-11 0 -32 47 -25 55 8 7 18 -6 27 -32z m176 -336 c87 -79 96 -87 104 -87 3 0
19 -12 35 -27 30 -27 53 -84 65 -167 11 -75 32 -151 65 -236 10 -25 25 -63 33
-85 35 -93 53 -136 100 -235 28 -58 59 -115 70 -127 17 -20 18 -23 4 -23 -9 0
-20 6 -24 14 -12 22 -75 85 -149 151 -130 115 -135 122 -200 270 -7 17 -25 57
-40 90 -14 33 -29 69 -34 80 -22 61 -33 94 -39 125 -5 19 -15 52 -24 74 -10
21 -17 49 -17 61 0 12 -6 40 -13 61 -18 50 -29 137 -18 132 5 -2 42 -33 82
-71z m2859 -62 c0 -13 -83 -84 -93 -78 -6 4 7 21 34 45 40 35 59 45 59 33z
m-110 -103 c0 -5 -13 -18 -30 -30 -32 -24 -41 -11 -13 20 16 18 43 25 43 10z
m-92 -42 c-7 -11 -21 -23 -30 -26 -10 -3 -18 -12 -18 -21 0 -8 -28 -42 -61
-74 -56 -54 -65 -59 -105 -59 -24 0 -44 3 -44 7 0 4 21 29 47 55 35 36 55 48
78 48 16 1 41 8 55 16 24 14 23 15 -22 9 -40 -5 -47 -4 -42 9 3 8 28 20 55 26
27 7 52 16 55 21 3 5 14 9 25 9 17 0 18 -3 7 -20z m32 -29 c0 -4 -11 -13 -25
-19 -28 -13 -33 -1 -9 22 15 15 34 14 34 -3z m-2405 -136 c29 -29 42 -51 38
-63 -8 -33 61 -217 78 -206 5 3 7 9 4 14 -3 5 -14 41 -24 80 -10 38 -26 81
-35 95 -23 35 0 32 44 -5 19 -17 40 -30 47 -30 7 0 13 -4 13 -8 0 -5 12 -15
28 -23 56 -29 81 -53 94 -93 8 -22 20 -57 27 -76 17 -46 39 -136 60 -247 8
-41 6 -49 -13 -68 -31 -31 -76 -57 -90 -52 -6 3 -25 31 -41 63 -16 33 -32 61
-36 64 -19 14 -123 258 -177 415 -11 33 -32 88 -45 123 -14 34 -23 62 -20 62
3 0 25 -20 48 -45z m2103 -57 c-6 -16 -48 -43 -48 -30 0 13 28 42 42 42 5 0 8
-5 6 -12z m-65 -42 c6 -16 -36 -56 -58 -56 -8 0 -15 -5 -15 -11 0 -5 -4 -7
-10 -4 -9 6 57 84 71 85 4 0 9 -6 12 -14z m-1664 -157 c40 -14 40 -29 -1 -29
-25 0 -29 -3 -20 -12 7 -7 12 -21 12 -32 0 -28 -19 -7 -26 28 -2 15 -11 38
-19 50 -17 26 -7 45 11 22 6 -9 25 -21 43 -27z m1465 -13 c-3 -9 -11 -16 -18
-16 -14 0 -49 -33 -103 -96 -23 -27 -51 -60 -63 -74 -11 -13 -31 -40 -43 -60
-11 -19 -26 -40 -32 -46 -6 -6 -32 -54 -59 -108 l-49 -97 -17 48 c-9 26 -19
74 -23 105 -5 51 -2 61 24 103 17 27 34 43 40 39 8 -4 8 -8 0 -13 -13 -8 -41
-75 -41 -98 0 -17 19 11 52 75 6 12 15 22 20 22 4 0 8 5 8 11 0 6 6 17 13 24
6 8 25 30 41 50 17 21 52 46 85 61 116 52 131 59 131 71 0 6 8 13 18 15 22 5
24 4 16 -16z m-1386 -30 c15 -7 39 -19 55 -26 25 -13 27 -17 27 -76 0 -60 -2
-64 -29 -79 -35 -17 -53 -3 -21 17 15 10 20 23 20 59 0 38 -4 49 -28 66 -15
11 -38 24 -51 28 -22 7 -23 5 -17 -21 4 -16 14 -58 21 -94 7 -36 16 -74 20
-85 3 -13 -3 -30 -19 -50 l-25 -30 -2 55 c-1 30 -2 62 -1 70 1 8 -3 46 -8 85
-12 92 2 111 58 81z m40 -109 c-2 -34 -7 -43 -24 -45 -17 -2 -23 4 -28 29 -3
17 -6 45 -6 61 l0 29 31 -16 c27 -15 30 -20 27 -58z m102 30 c39 -15 76 -30
136 -58 23 -11 46 -19 53 -19 6 0 24 -8 38 -17 22 -15 47 -18 132 -16 57 1
136 8 175 17 39 8 102 17 140 20 37 3 74 10 81 16 22 18 25 -4 9 -61 -18 -61
-45 -233 -43 -264 2 -26 -10 -55 -24 -55 -6 0 -20 -9 -31 -19 -29 -27 -189
-108 -261 -132 -33 -12 -65 -25 -71 -30 -22 -18 -214 90 -323 181 -91 75 -96
86 -68 141 19 39 22 59 22 177 0 72 0 132 0 132 0 0 16 -6 35 -13z m949 -19
c-8 -7 -18 -13 -24 -13 -48 -1 -81 -17 -92 -45 -15 -40 -30 -38 -25 4 3 29 9
35 45 46 23 7 53 14 66 17 14 2 28 6 30 9 2 2 6 2 9 -1 2 -2 -2 -10 -9 -17z
m-12 -34 c7 -20 -12 -33 -38 -27 -12 3 -26 -3 -39 -18 -19 -23 -19 -23 -20 -3
0 13 13 28 38 42 45 26 51 27 59 6z m-997 -115 c0 -67 -19 -139 -36 -139 -18
0 -18 32 1 95 14 44 14 50 -1 58 -14 8 -13 10 3 23 29 22 33 17 33 -37z m870
21 c0 -20 -5 -30 -15 -30 -18 0 -19 14 -5 41 15 27 20 24 20 -11z m-926 -45
c-9 -14 -17 -46 -17 -72 -2 -43 3 -54 46 -108 26 -33 65 -73 87 -89 22 -17 40
-33 40 -38 0 -4 6 -8 14 -8 7 0 19 -6 25 -13 8 -11 6 -17 -12 -26 -12 -7 -46
-42 -76 -77 -30 -35 -58 -61 -63 -58 -4 3 -15 20 -23 37 -8 18 -24 46 -35 62
-11 17 -24 40 -30 53 -5 12 -14 22 -20 22 -5 0 -10 6 -10 14 0 8 -3 16 -8 18
-4 2 -23 23 -42 48 -19 25 -37 47 -40 50 -31 30 -31 39 1 55 34 18 118 100
145 140 9 14 20 22 25 19 5 -3 2 -16 -7 -29z m926 -41 c0 -17 -4 -22 -15 -18
-12 5 -15 -2 -15 -29 0 -43 -17 -90 -29 -83 -5 3 -5 26 0 53 5 27 11 62 14 79
4 26 9 31 25 27 13 -3 20 -14 20 -29z m25 -106 c4 -18 14 -45 21 -60 12 -22
12 -31 -1 -55 -8 -15 -15 -35 -15 -43 0 -8 -6 -32 -14 -55 -43 -122 -65 -423
-37 -497 20 -52 -9 -40 -35 14 -14 29 -35 69 -46 88 -18 29 -63 114 -125 235
-5 11 -18 38 -28 60 -9 22 -21 48 -26 57 -13 26 -12 27 34 49 23 11 56 29 72
39 17 11 37 23 45 27 30 13 119 119 127 150 8 33 20 28 28 -9z m-724 -245
c-13 -8 -40 -34 -60 -56 -65 -72 -71 -77 -81 -77 -22 0 -7 22 66 95 55 56 79
74 87 66 8 -8 5 -16 -12 -28z m95 -9 c38 -18 40 -37 6 -42 -13 -2 -36 -23 -54
-50 -18 -26 -37 -52 -43 -58 -5 -6 -30 -34 -55 -62 -24 -29 -47 -52 -50 -52
-3 0 -13 20 -24 45 l-18 45 45 48 c25 26 58 61 74 77 26 28 72 65 81 65 2 0
19 -7 38 -16z m310 -44 c9 -22 25 -57 35 -77 11 -21 19 -43 19 -49 0 -7 3 -14
8 -16 4 -1 21 -30 37 -63 17 -33 33 -62 36 -65 3 -3 11 -20 18 -37 8 -18 17
-33 21 -33 5 0 13 -12 19 -27 7 -16 20 -43 30 -62 14 -26 15 -38 7 -47 -19
-21 -12 -31 -130 200 -42 82 -76 155 -76 163 0 8 -16 43 -35 79 -40 74 -40 74
-20 74 8 0 22 -18 31 -40z m-188 -30 c30 -18 43 -40 23 -40 -11 0 -41 -125
-41 -174 0 -33 2 -37 15 -26 10 9 15 32 15 74 0 64 20 111 38 91 16 -19 44
-104 36 -116 -4 -6 -24 -27 -44 -45 -21 -19 -61 -57 -91 -86 -29 -28 -54 -47
-56 -41 -2 6 -24 37 -49 69 -39 49 -45 63 -39 89 3 16 9 53 12 80 9 80 63 144
123 145 14 0 40 -9 58 -20z m-202 -158 c-1 -20 -6 -45 -11 -55 -8 -19 36 -92
91 -151 l27 -28 26 26 c14 15 59 59 100 97 l74 71 51 -104 c28 -56 47 -105 42
-107 -5 -2 -32 -27 -61 -55 -76 -75 -106 -99 -114 -89 -4 4 -25 31 -46 58 -49
61 -106 115 -122 115 -20 0 -44 -45 -41 -78 1 -19 -5 -39 -16 -51 -23 -25 -16
-77 15 -109 l20 -22 34 26 c35 26 35 26 72 9 63 -30 67 -39 33 -75 -17 -18
-30 -38 -30 -46 0 -18 36 -18 47 0 4 7 18 18 31 25 17 9 22 9 22 -1 0 -7 20
-34 43 -61 34 -38 45 -45 55 -35 10 10 18 5 42 -21 17 -18 30 -36 30 -42 0 -5
4 -9 9 -9 5 0 12 -8 15 -17 3 -10 17 -31 31 -47 18 -21 24 -38 21 -55 -3 -15
-8 -47 -11 -73 -3 -27 -10 -48 -15 -48 -21 0 -139 76 -176 113 -63 65 -174
235 -174 266 0 19 -7 31 -22 38 -32 14 -48 6 -48 -26 0 -25 -3 -27 -30 -23
-18 2 -30 0 -30 -7 0 -5 -8 -15 -18 -20 -18 -9 -19 -1 -19 167 -1 147 -5 192
-23 267 -12 49 -25 97 -29 105 -5 10 2 25 20 43 l26 29 7 -26 c3 -14 13 -26
21 -26 12 0 13 5 3 25 -9 19 -8 31 2 50 18 33 30 22 26 -23z m128 -303 c31
-34 56 -65 56 -69 0 -4 6 -13 14 -19 7 -6 16 -25 20 -41 7 -39 7 -40 -1 -37
-5 1 -7 5 -5 10 1 4 -1 7 -5 8 -5 0 -18 2 -31 3 -33 4 -73 66 -42 66 6 0 10 5
10 11 0 5 -4 8 -9 5 -5 -3 -19 10 -30 30 -17 28 -27 35 -46 32 -13 -2 -24 0
-25 5 -2 21 14 57 25 57 7 0 38 -27 69 -61z m307 -1 c7 -18 28 -54 46 -80 18
-26 33 -50 33 -54 0 -3 12 -20 26 -39 28 -37 31 -56 16 -100 -24 -69 -42 -144
-42 -173 0 -22 -5 -32 -15 -32 -8 0 -15 5 -15 10 0 6 -22 39 -50 74 -27 35
-50 68 -50 74 0 6 -3 12 -7 14 -12 5 -63 75 -63 86 0 6 -7 12 -15 16 -8 3 -15
12 -15 19 0 8 -9 22 -20 32 -11 10 -20 23 -20 29 0 13 163 166 171 160 4 -2
12 -18 20 -36z m-348 -63 l19 -39 -34 -27 c-38 -32 -53 -25 -64 26 -4 22 0 38
16 58 28 35 40 31 63 -18z m137 -149 c0 -11 -19 -15 -25 -6 -3 5 1 10 9 10 9
0 16 -2 16 -4z m88 -63 c18 -23 29 -44 24 -47 -11 -7 -74 79 -65 88 3 3 7 5 8
4 1 -2 16 -22 33 -45z m-211 14 c-2 -31 17 -87 29 -87 8 0 14 -8 14 -18 0 -11
9 -27 20 -37 11 -10 20 -24 20 -30 0 -7 7 -15 15 -19 8 -3 15 -11 15 -18 0
-20 96 -117 133 -135 66 -31 98 -51 89 -57 -5 -3 -40 11 -78 31 -38 20 -79 41
-91 47 -13 6 -23 15 -23 19 0 4 -5 13 -10 20 -6 7 -24 32 -40 57 -16 25 -46
70 -67 100 -50 73 -78 132 -67 143 9 9 42 -4 41 -16z m83 9 c0 -11 -19 -15
-25 -6 -3 5 1 10 9 10 9 0 16 -2 16 -4z m130 -371 c30 -25 102 -56 123 -53 20
3 21 -1 18 -42 -4 -66 -15 -70 -60 -21 -25 27 -46 41 -59 39 -21 -3 -52 18
-52 37 0 7 -7 18 -15 25 -8 7 -15 18 -15 25 0 15 37 9 60 -10z m58 -118 c13
-19 18 -33 11 -36 -12 -4 -35 25 -42 52 -8 27 6 20 31 -16z m27 -57 c3 -5 1
-10 -4 -10 -6 0 -11 5 -11 10 0 6 2 10 4 10 3 0 8 -4 11 -10z"/>
<path d="M4485 4568 c5 -24 39 -166 54 -228 14 -57 52 -164 62 -174 5 -6 9
-16 9 -24 0 -8 7 -29 15 -48 8 -19 22 -49 30 -68 8 -19 15 -39 15 -46 0 -6 4
-8 10 -5 6 4 6 12 0 23 -5 9 -23 58 -41 107 -17 50 -39 113 -50 140 -10 28
-21 67 -25 88 -3 20 -10 40 -15 43 -5 3 -9 16 -9 28 0 13 -7 40 -15 59 -8 20
-15 57 -15 82 0 34 -4 45 -15 45 -11 0 -14 -7 -10 -22z"/>
<path d="M2828 3609 c-21 -12 -24 -49 -5 -49 8 0 24 -11 37 -25 18 -19 27 -22
41 -14 25 13 24 24 -7 65 -28 36 -38 40 -66 23z m42 -23 c0 -20 -19 -31 -32
-18 -6 6 -7 15 -4 21 10 16 36 13 36 -3z m38 -38 c-7 -19 -38 -22 -38 -4 0 10
9 16 21 16 12 0 19 -5 17 -12z"/>
<path d="M2967 3453 c-12 -11 -8 -40 6 -52 11 -8 20 -5 42 13 15 13 24 29 21
35 -8 12 -58 15 -69 4z m47 -11 c2 -4 -4 -13 -14 -20 -20 -12 -36 0 -25 18 7
12 32 13 39 2z"/>
<path d="M2482 3558 c-23 -11 -23 -23 -2 -73 4 -11 13 -40 20 -64 17 -64 30
-37 18 39 -6 36 -10 75 -9 88 0 12 0 22 -2 21 -1 0 -12 -5 -25 -11z m5 -60
c-3 -8 -6 -5 -6 6 -1 11 2 17 5 13 3 -3 4 -12 1 -19z"/>
<path d="M3893 510 c-31 -12 -29 -28 2 -23 28 6 57 33 34 32 -8 0 -24 -4 -36
-9z"/>
<path d="M5841 5898 c73 -73 188 -220 230 -294 45 -80 99 -189 99 -201 0 -7 5
-13 10 -13 6 0 10 -7 10 -15 0 -8 5 -15 10 -15 17 0 12 13 -40 116 -27 54 -50
104 -50 110 0 5 -9 20 -20 32 -11 12 -20 24 -20 27 0 32 -184 251 -253 302
-58 43 -48 23 24 -49z"/>
<path d="M2477 5953 c-10 -9 -9 -23 2 -23 5 0 11 7 15 15 5 15 -5 20 -17 8z"/>
<path d="M1962 5779 c-19 -17 -32 -33 -29 -35 3 -3 22 11 42 30 45 44 33 48
-13 5z"/>
<path d="M6558 5729 c-21 -12 -24 -29 -4 -29 7 0 16 9 19 20 3 11 4 20 4 20
-1 0 -10 -5 -19 -11z"/>
<path d="M1891 5704 c-26 -26 -26 -40 -1 -21 22 17 44 47 34 46 -5 -1 -20 -12
-33 -25z"/>
<path d="M6274 5711 c16 -11 36 -16 45 -13 13 5 13 7 -4 10 -11 2 -24 8 -29
13 -6 5 -17 9 -25 9 -10 0 -5 -8 13 -19z"/>
<path d="M1846 5644 c-9 -24 -7 -28 9 -14 17 14 20 30 6 30 -5 0 -12 -7 -15
-16z"/>
<path d="M2955 4763 c-58 -13 -245 -100 -245 -114 0 -5 1 -9 3 -9 6 0 111 50
149 70 20 11 46 20 56 20 11 0 30 9 43 20 13 10 22 19 19 19 -3 -1 -14 -3 -25
-6z"/>
<path d="M3206 4660 c5 -119 34 -300 47 -300 4 0 6 8 3 18 -7 25 -15 79 -21
147 -3 33 -9 80 -14 103 -5 24 -7 51 -5 60 3 10 0 31 -6 47 -7 22 -8 2 -4 -75z"/>
<path d="M3053 4733 c-7 -2 -13 -12 -13 -22 0 -9 -7 -26 -15 -37 -16 -21 -20
-48 -6 -40 13 8 63 106 54 105 -5 0 -14 -3 -20 -6z"/>
<path d="M4600 4621 c0 -15 24 -29 55 -31 50 -3 52 0 11 20 -42 21 -66 25 -66
11z"/>
<path d="M2985 4591 c-8 -17 -12 -31 -7 -31 12 0 37 48 29 56 -3 3 -13 -8 -22
-25z"/>
<path d="M2310 4564 c0 -14 -5 -34 -10 -45 -7 -13 -8 -25 -1 -37 9 -14 10 -11
11 16 0 17 3 32 8 32 4 0 8 14 9 30 1 17 -2 30 -7 30 -6 0 -10 -12 -10 -26z"/>
<path d="M4790 4551 c0 -5 12 -16 28 -24 58 -30 128 -71 151 -89 51 -39 125
-104 154 -135 16 -18 34 -30 39 -27 12 8 -128 144 -197 191 -63 42 -154 93
-167 93 -5 0 -8 -4 -8 -9z"/>
<path d="M1628 4013 c-51 -124 -71 -169 -79 -178 -5 -5 -9 -15 -9 -22 0 -8 -5
-19 -10 -26 -6 -7 -31 -43 -57 -81 -25 -38 -58 -83 -72 -99 -46 -52 -140 -147
-146 -147 -3 0 -17 -11 -30 -25 -13 -15 -26 -22 -29 -17 -3 5 7 22 22 38 15
17 45 53 67 82 21 29 43 52 47 52 4 0 8 6 8 14 0 7 7 19 15 26 8 7 15 21 15
32 0 17 -3 18 -15 8 -8 -7 -15 -18 -15 -25 0 -7 -7 -15 -15 -19 -8 -3 -15 -10
-15 -16 0 -13 -72 -79 -87 -80 -7 0 -13 -5 -13 -11 0 -5 -15 -17 -32 -25 -18
-9 -51 -26 -73 -39 -22 -13 -47 -24 -56 -24 -9 -1 -22 -7 -28 -15 -7 -8 -27
-18 -44 -22 -18 -3 -43 -12 -57 -19 -33 -17 -154 -54 -159 -49 -2 2 16 23 40
47 75 74 104 110 147 177 23 36 45 70 49 75 4 6 15 26 24 45 49 105 53 110 89
116 49 8 100 27 100 36 0 4 7 8 15 8 8 0 15 5 15 10 0 12 -15 13 -38 1 -87
-44 -273 -66 -427 -51 -71 6 -107 16 -165 43 -81 38 -136 88 -142 126 -4 31
-28 40 -28 11 0 -38 65 -115 124 -145 11 -6 30 -16 41 -22 61 -33 142 -45 288
-41 81 1 147 2 147 1 0 -3 -51 -98 -63 -118 -65 -105 -100 -156 -131 -188 -20
-21 -36 -42 -36 -47 0 -4 -10 -14 -22 -23 -13 -8 -41 -31 -62 -50 -38 -34 -69
-46 -125 -48 -26 -1 -26 -1 4 -10 33 -11 97 -1 210 33 84 25 176 59 190 70 5
4 16 8 25 8 10 0 27 9 40 20 34 29 52 26 44 -7 -4 -16 -9 -31 -13 -35 -8 -9
-89 -55 -123 -70 -24 -11 -40 -38 -22 -38 14 0 92 41 103 54 28 34 26 2 -6
-91 -19 -54 -38 -110 -43 -124 -4 -15 -16 -44 -25 -65 -40 -93 -45 -105 -45
-116 0 -11 -14 -43 -96 -215 -40 -82 -96 -178 -124 -210 -5 -7 -10 -15 -10
-18 0 -7 -103 -139 -112 -143 -4 -2 -30 -35 -59 -73 -28 -38 -55 -69 -60 -69
-5 0 -9 -6 -9 -14 0 -8 -4 -16 -9 -18 -13 -4 -121 -144 -121 -156 0 -6 -7 -12
-15 -16 -8 -3 -15 -12 -15 -19 0 -8 -7 -21 -16 -28 -9 -7 -20 -22 -25 -34 -5
-11 -18 -33 -29 -50 -27 -43 -86 -163 -105 -215 -63 -176 -84 -328 -68 -501
10 -111 43 -253 63 -273 6 -6 10 -15 10 -22 0 -14 34 -86 66 -139 13 -22 27
-48 30 -58 4 -9 10 -17 14 -17 5 0 11 -8 14 -17 4 -10 24 -38 46 -62 22 -25
40 -45 40 -45 0 -1 -79 -81 -175 -180 -163 -165 -189 -196 -167 -196 5 0 84
79 176 175 92 96 173 175 180 175 31 0 34 -22 7 -63 -16 -23 -36 -58 -47 -77
-10 -19 -24 -42 -30 -50 -30 -38 -152 -290 -141 -290 12 0 57 62 57 78 0 9 69
144 98 192 12 19 27 47 33 63 6 15 15 27 20 27 5 0 9 6 9 13 0 6 11 25 23 41
l23 29 21 -22 c31 -33 126 -102 132 -95 3 3 -4 14 -16 24 -127 103 -180 155
-239 235 -16 22 -32 42 -36 43 -5 2 -8 10 -8 17 0 7 -4 15 -8 17 -7 3 -31 42
-79 133 -58 108 -109 357 -100 483 15 218 98 453 227 647 46 68 160 216 180
235 10 8 36 41 60 73 23 31 46 57 51 57 5 0 9 7 9 15 0 9 7 18 15 21 8 4 15
12 15 20 0 8 4 14 8 14 5 0 24 22 43 50 19 27 37 50 42 50 4 0 7 6 7 14 0 8 4
16 8 18 13 5 92 136 92 152 0 8 3 16 8 18 10 4 69 129 107 228 9 25 26 62 36
83 11 22 19 47 19 56 0 9 4 21 8 26 5 6 19 42 31 80 12 39 31 93 41 120 11 28
22 62 25 78 4 19 12 27 26 27 15 0 19 -5 15 -17 -7 -21 -21 -90 -40 -191 -8
-40 -18 -78 -24 -85 -5 -6 -15 -28 -20 -47 -13 -44 -31 -96 -49 -137 -7 -17
-13 -34 -13 -38 0 -4 -9 -26 -19 -49 -10 -23 -26 -61 -36 -86 -9 -25 -23 -58
-30 -75 -27 -64 -63 -152 -75 -185 -15 -42 -24 -64 -90 -205 -101 -217 -114
-247 -168 -395 -54 -148 -114 -378 -136 -520 -19 -126 -27 -295 -17 -345 l9
-40 1 55 c5 162 40 406 77 536 8 28 14 57 14 65 0 15 67 229 88 279 5 14 18
45 27 70 10 25 31 74 47 110 17 36 39 85 50 110 21 47 28 62 45 95 6 11 18 38
28 60 9 22 24 52 31 67 8 14 14 32 14 40 0 7 9 31 19 53 11 22 27 60 36 85 19
48 32 80 60 145 10 22 35 89 55 148 33 95 43 115 52 105 1 -2 -3 -28 -9 -58
-20 -91 -43 -244 -43 -279 0 -18 -5 -41 -10 -51 -6 -11 -14 -61 -19 -112 -5
-52 -16 -132 -24 -178 -13 -72 -34 -239 -51 -405 -2 -22 -9 -87 -15 -145 -6
-58 -15 -154 -19 -215 -8 -100 -12 -118 -51 -200 -24 -49 -55 -117 -71 -150
-63 -136 -159 -322 -209 -405 -32 -54 -42 -81 -36 -101 6 -18 35 -16 35 3 0
11 51 81 62 86 5 2 8 10 8 17 0 7 7 15 15 19 8 3 15 12 15 21 0 8 4 15 9 15 4
0 30 28 56 61 27 34 59 73 72 87 13 14 33 40 44 59 24 38 39 35 39 -8 0 -18 4
-28 10 -24 6 4 10 79 10 193 0 105 7 239 15 307 8 65 15 144 15 175 0 30 7
111 15 180 33 263 57 438 71 515 8 44 14 95 14 114 0 18 7 70 15 115 33 180
63 361 85 511 5 39 17 108 25 154 8 45 13 87 10 91 -6 10 60 61 69 53 3 -4 6
-85 6 -182 0 -172 25 -614 35 -631 3 -5 12 -50 20 -102 8 -51 20 -113 26 -138
30 -124 43 -168 56 -205 9 -22 19 -53 24 -70 11 -43 63 -184 82 -225 9 -19 28
-62 42 -95 39 -86 51 -112 94 -190 12 -22 30 -57 38 -77 9 -21 19 -38 24 -38
4 0 12 -12 18 -28 12 -29 12 -31 84 -140 26 -41 47 -76 47 -79 0 -3 16 -25 35
-49 19 -23 35 -47 35 -53 0 -7 7 -14 15 -17 8 -4 15 -10 15 -14 0 -10 56 -75
125 -147 168 -173 193 -201 275 -312 22 -30 44 -57 48 -60 4 -4 21 -26 37 -51
17 -25 33 -47 38 -48 4 -2 7 -8 7 -13 0 -5 15 -31 33 -57 17 -26 41 -65 52
-87 11 -22 22 -42 25 -45 4 -3 25 -45 49 -95 61 -127 78 -159 90 -163 6 -2 4
13 -5 35 -22 55 -121 253 -144 288 -11 17 -24 39 -30 50 -6 11 -18 32 -28 46
-9 14 -30 46 -46 70 -37 55 -166 224 -203 265 -79 88 -101 119 -153 224 -23
47 -48 97 -56 112 -8 14 -14 33 -14 41 0 8 -7 28 -15 43 -8 16 -15 37 -15 47
0 10 -9 46 -20 80 -50 158 -108 501 -119 706 -4 76 -10 106 -20 109 -11 4 -13
-10 -7 -79 19 -237 52 -471 82 -575 8 -28 14 -60 14 -71 0 -11 6 -39 14 -64 8
-24 26 -84 42 -134 15 -49 31 -97 35 -105 23 -47 50 -123 46 -133 -2 -6 -23
15 -46 46 -24 31 -47 57 -52 57 -5 0 -9 6 -9 14 0 8 -7 16 -15 20 -8 3 -15 12
-15 20 0 8 -3 16 -7 18 -13 5 -63 76 -63 87 0 6 -4 11 -8 11 -5 0 -14 10 -21
22 -14 28 -28 50 -66 108 -36 57 -68 116 -162 305 -41 83 -81 163 -88 178 -8
16 -15 34 -15 40 0 7 -7 25 -16 42 -8 16 -31 79 -51 140 -20 60 -44 132 -54
159 -11 27 -19 59 -19 71 0 12 -7 42 -15 65 -8 23 -15 54 -15 68 0 14 -6 53
-14 86 -8 34 -19 135 -26 226 -6 91 -15 197 -20 235 -6 39 -10 159 -11 267
l-1 197 69 68 c64 63 153 171 180 218 25 44 91 182 108 225 9 25 21 55 26 68
11 28 11 32 1 32 -5 0 -16 -17 -24 -37z m-453 -573 c-20 -38 -35 -46 -35 -19
0 23 30 60 42 52 5 -2 1 -17 -7 -33z m-293 -2192 c-2 -46 -9 -89 -15 -96 -8
-10 -7 -16 2 -22 9 -5 10 -9 2 -14 -6 -4 -17 -22 -25 -39 -8 -18 -42 -66 -77
-108 -81 -97 -122 -148 -132 -165 -9 -16 -27 -19 -27 -5 0 5 6 16 13 23 22 23
217 407 217 428 0 13 33 80 39 80 3 0 4 -37 3 -82z"/>
<path d="M6270 4043 c0 -5 7 -16 14 -26 16 -20 32 -6 22 18 -5 15 -36 21 -36
8z"/>
<path d="M2365 3870 c8 -67 34 -161 47 -175 12 -13 3 46 -24 145 -25 92 -32
102 -23 30z"/>
<path d="M5883 3753 c5 -154 12 -203 43 -348 29 -132 61 -220 133 -367 40 -81
150 -194 169 -173 4 4 2 10 -5 12 -16 6 -66 73 -54 73 13 0 90 -82 105 -112 6
-12 19 -24 29 -26 24 -5 21 15 -3 28 -11 6 -18 15 -15 19 3 5 -29 46 -69 91
-75 82 -146 201 -146 243 0 12 -6 42 -14 67 -7 25 -17 81 -21 126 -9 109 -25
131 -25 36 0 -104 41 -270 92 -374 16 -32 25 -58 20 -58 -10 0 -52 55 -52 69
0 5 -6 22 -14 38 -32 63 -74 178 -86 233 -4 19 -12 53 -18 75 -29 105 -42 218
-42 358 0 130 -2 147 -16 147 -15 0 -16 -16 -11 -157z m278 -778 c0 -6 -10
-12 -23 -13 -19 -4 -20 -2 -9 12 15 17 33 18 32 1z"/>
<path d="M3390 3766 c14 -13 28 -22 32 -19 11 6 -25 43 -42 43 -10 0 -7 -7 10
-24z"/>
<path d="M2640 3485 c0 -25 7 -57 16 -70 19 -29 40 -35 26 -7 -6 9 -13 41 -17
70 -8 64 -25 69 -25 7z"/>
<path d="M4441 3431 c-21 -14 -6 -54 29 -74 25 -15 34 -16 45 -7 17 14 20 40
5 40 -5 0 -10 7 -10 15 0 9 -12 20 -26 25 -30 12 -26 12 -43 1z m38 -15 c8
-10 8 -16 -2 -24 -17 -14 -42 2 -34 22 8 20 21 20 36 2z m31 -41 c0 -8 -7 -15
-15 -15 -16 0 -20 12 -8 23 11 12 23 8 23 -8z"/>
<path d="M2180 3328 c0 -13 45 -132 67 -178 49 -101 184 -282 199 -267 8 7
-15 47 -26 47 -6 0 -10 7 -10 15 0 8 -4 15 -10 15 -25 0 -182 280 -192 344 -2
16 -28 37 -28 24z"/>
<path d="M5074 3235 c-3 -14 -3 -32 0 -40 4 -11 2 -14 -6 -9 -8 5 -9 2 -5 -10
4 -10 8 -34 8 -54 1 -21 3 -28 6 -17 3 11 10 25 17 30 9 7 12 28 8 68 -5 60
-17 74 -28 32z"/>
<path d="M5010 3043 c0 -96 21 -88 28 12 3 55 2 65 -12 65 -13 0 -16 -13 -16
-77z"/>
<path d="M3026 3018 c-17 -24 -22 -53 -7 -44 9 6 33 66 26 66 -2 0 -11 -10
-19 -22z"/>
<path d="M2857 2974 c-4 -4 -7 -14 -7 -23 0 -11 3 -12 11 -4 6 6 10 16 7 23
-2 6 -7 8 -11 4z"/>
<path d="M2987 2933 c-19 -38 -59 -155 -54 -159 2 -2 12 15 21 38 10 24 27 64
39 90 22 52 18 78 -6 31z"/>
<path d="M6395 2719 c4 -12 11 -65 15 -118 14 -172 30 -353 45 -506 43 -435
56 -656 56 -988 1 -306 -1 -346 -21 -444 -24 -123 -61 -266 -71 -273 -3 -3 -9
-16 -12 -30 -6 -26 -109 -162 -127 -168 -6 -2 -10 -9 -10 -15 -1 -7 -14 -23
-30 -37 -17 -13 -30 -27 -30 -30 0 -4 -21 -28 -47 -55 -27 -29 -41 -51 -34
-53 6 -2 37 22 67 55 75 78 144 154 172 187 12 15 27 24 32 21 6 -3 10 -42 10
-85 0 -88 16 -180 32 -180 6 0 8 15 4 37 -3 21 -8 77 -11 125 -4 49 -11 90
-16 94 -11 7 -12 61 0 68 4 3 19 38 31 78 12 40 29 93 37 118 8 25 19 76 24
113 11 87 16 94 41 60 12 -15 65 -72 120 -127 54 -54 96 -101 93 -106 -2 -4
-11 -45 -20 -91 -8 -46 -23 -113 -34 -149 -17 -58 -28 -89 -70 -192 -8 -22 -8
-28 2 -28 13 0 67 110 67 136 0 7 6 28 14 46 14 33 35 121 54 228 45 241 57
498 38 765 -8 110 -22 227 -31 260 -9 33 -22 83 -30 110 -7 28 -21 79 -30 115
-16 59 -28 96 -64 200 -7 19 -16 49 -20 65 -4 17 -13 40 -19 52 -7 12 -12 29
-12 37 0 9 -9 35 -19 59 -11 23 -29 70 -40 104 -11 33 -25 72 -30 85 -36 93
-77 270 -86 372 -3 38 -10 77 -16 87 -13 26 -32 24 -24 -2z m95 -440 c16 -46
43 -122 60 -169 42 -114 83 -232 105 -305 10 -33 23 -76 28 -95 6 -19 15 -39
19 -44 4 -6 8 -22 8 -36 0 -15 6 -46 14 -71 14 -43 35 -145 56 -264 20 -116
28 -327 18 -465 -5 -74 -13 -138 -16 -142 -6 -6 -73 95 -111 170 -8 15 -18 29
-23 30 -4 2 -8 9 -8 16 0 13 -20 52 -74 148 -25 45 -26 53 -27 210 0 90 -4
201 -10 248 -5 47 -13 157 -19 245 -5 88 -14 198 -20 245 -6 47 -15 135 -21
195 -5 61 -12 125 -14 144 -7 49 1 36 35 -60z m81 -1277 c0 -9 13 -39 29 -67
16 -27 40 -73 54 -101 14 -28 32 -57 41 -64 8 -7 15 -17 15 -22 0 -6 13 -29
28 -52 40 -59 43 -72 36 -139 l-7 -60 -98 104 c-55 56 -99 106 -99 110 0 5 -8
12 -17 17 -15 9 -17 27 -14 148 1 76 5 142 7 146 8 12 24 -1 25 -20z"/>
<path d="M1950 2612 c0 -4 20 -27 45 -52 24 -25 44 -51 45 -57 0 -7 5 -13 11
-13 7 0 17 -7 24 -17 7 -9 15 -12 18 -6 6 9 -26 49 -95 121 -30 31 -48 40 -48
24z"/>
<path d="M2040 2605 c0 -8 4 -15 8 -15 4 0 16 -14 26 -30 9 -17 21 -28 26 -25
10 6 -29 71 -47 79 -7 3 -13 -1 -13 -9z"/>
<path d="M4907 2574 c-77 -20 -77 -24 -2 -18 39 3 74 8 79 11 8 5 -13 24 -24
22 -3 -1 -27 -7 -53 -15z"/>
<path d="M3520 2417 c0 -19 59 -60 76 -53 17 7 10 26 -10 26 -7 0 -21 9 -31
20 -21 23 -35 26 -35 7z"/>
<path d="M3735 2380 c-3 -5 -17 -10 -31 -10 -13 0 -24 -5 -24 -11 0 -17 79 -4
99 15 14 15 13 16 -11 16 -15 0 -30 -4 -33 -10z"/>
<path d="M5237 2188 c-2 -18 -9 -46 -15 -63 -21 -60 -50 -162 -66 -230 -38
-157 -46 -195 -66 -310 -11 -66 -27 -153 -35 -193 -8 -40 -15 -87 -15 -104 0
-17 -7 -70 -15 -117 -26 -155 -46 -294 -55 -382 -5 -47 -14 -97 -19 -113 -6
-15 -11 -53 -11 -84 0 -31 -5 -77 -11 -101 -5 -25 -14 -77 -19 -116 -16 -125
-39 -181 -122 -298 -52 -73 -54 -77 -35 -77 12 0 87 103 87 120 0 4 3 10 8 12
4 2 25 30 47 63 21 33 66 93 100 135 33 41 82 102 109 135 26 33 58 71 70 85
12 14 40 48 62 75 43 55 61 77 85 103 44 48 199 279 240 357 54 103 83 161 95
190 7 17 21 50 32 75 11 25 28 65 37 90 9 25 23 60 31 78 8 18 14 41 14 50 0
10 4 22 9 28 8 8 41 111 78 244 8 30 19 69 24 86 11 38 11 44 0 44 -5 0 -17
-26 -26 -57 -9 -32 -23 -76 -31 -98 -8 -23 -14 -48 -14 -58 0 -9 -5 -25 -10
-35 -10 -17 -43 -110 -60 -167 -4 -16 -18 -55 -30 -85 -12 -30 -29 -73 -37
-94 -17 -46 -59 -142 -75 -171 -30 -52 -78 -142 -85 -155 -6 -14 -75 -116
-157 -234 -19 -27 -46 -61 -60 -77 -14 -15 -26 -32 -26 -38 0 -6 -4 -11 -8
-11 -5 0 -23 -19 -40 -43 -17 -23 -42 -54 -56 -69 -14 -15 -26 -31 -26 -36 0
-6 -7 -12 -15 -16 -8 -3 -15 -12 -15 -20 0 -8 -4 -16 -9 -18 -18 -7 -161 -172
-161 -187 0 -11 -3 -12 -11 -4 -7 7 -4 20 9 45 16 27 22 68 30 199 6 90 18
209 27 264 19 114 37 238 60 410 9 66 23 156 32 200 8 44 19 103 23 130 11 79
30 175 46 231 8 28 14 59 14 69 0 10 9 50 21 89 11 39 28 96 36 126 8 30 22
75 29 99 17 55 17 61 0 61 -8 0 -16 -14 -19 -32z"/>
<path d="M2320 2185 c0 -3 26 -45 57 -93 32 -48 61 -94 65 -102 5 -8 19 -33
33 -55 14 -22 28 -47 32 -55 4 -8 13 -21 20 -28 7 -7 13 -20 13 -27 0 -7 6
-20 13 -27 6 -7 25 -38 40 -68 16 -30 32 -62 37 -70 4 -8 25 -51 45 -95 35
-74 43 -94 73 -165 6 -14 21 -47 33 -75 12 -27 25 -61 30 -75 4 -14 27 -77 49
-140 23 -63 45 -128 50 -145 4 -16 19 -66 32 -110 26 -80 55 -209 79 -340 7
-38 14 -170 16 -293 4 -193 6 -222 20 -222 14 0 15 22 10 193 -7 274 -38 469
-107 687 -5 14 -18 59 -30 100 -11 41 -28 91 -37 110 -8 19 -26 67 -38 105
-27 80 -39 114 -66 170 -10 22 -31 69 -46 104 -51 118 -199 406 -220 429 -7 7
-13 17 -13 22 0 5 -13 28 -28 52 -16 24 -43 66 -60 93 -17 28 -36 55 -42 62
-5 7 -10 16 -10 21 0 5 -8 16 -18 25 -18 17 -32 22 -32 12z"/>
<path d="M898 940 c-7 -65 15 -299 32 -330 6 -11 13 -56 14 -98 3 -84 15 -123
43 -143 10 -8 19 -21 21 -29 2 -8 17 -43 33 -78 16 -35 29 -65 29 -67 0 -8 84
-130 92 -133 4 -2 8 -9 8 -15 1 -15 47 -50 61 -45 5 2 -9 23 -31 47 -22 24
-48 58 -57 75 -9 17 -19 33 -22 36 -3 3 -23 41 -43 85 -55 120 -68 152 -68
165 0 7 -6 26 -14 43 -27 60 -73 310 -85 457 l-6 85 -7 -55z"/>
<path d="M1140 952 c0 -5 14 -47 31 -93 17 -46 34 -95 39 -109 20 -62 101
-236 137 -292 13 -21 23 -44 23 -53 0 -8 4 -15 8 -15 7 0 19 -17 67 -95 40
-66 146 -199 197 -247 15 -15 28 -32 28 -37 0 -6 9 -11 20 -11 28 0 26 6 -17
49 -78 78 -124 134 -197 238 -20 29 -36 55 -36 58 0 3 -15 27 -33 53 -44 65
-167 316 -167 344 0 7 -7 22 -15 32 -8 11 -15 28 -15 38 0 11 -8 33 -17 51 -9
18 -19 45 -22 61 -6 27 -31 50 -31 28z"/>
<path d="M434 813 c9 -87 32 -195 57 -258 10 -28 19 -55 19 -61 0 -9 32 -73
84 -169 21 -38 79 -110 127 -155 l47 -45 -29 -60 c-34 -70 -32 -65 -16 -65 6
0 29 37 50 83 21 45 65 136 98 202 32 66 59 126 59 133 0 41 -35 -18 -116
-196 -17 -38 -34 -62 -44 -62 -15 0 -84 72 -104 109 -5 9 -12 18 -16 21 -17
12 -107 181 -124 234 -16 47 -18 61 -7 78 11 17 9 23 -14 42 -21 18 -28 36
-35 87 -9 72 -28 149 -37 149 -3 0 -3 -30 1 -67z"/>
<path d="M965 723 c12 -76 21 -96 36 -87 6 3 6 10 1 17 -5 7 -15 37 -23 67
-19 80 -28 82 -14 3z"/>
<path d="M4046 658 c-3 -13 -6 -39 -6 -59 0 -20 -7 -73 -15 -117 -13 -65 -13
-90 -4 -127 9 -35 9 -49 0 -58 -8 -8 -11 -3 -11 21 0 18 -4 32 -10 32 -5 0
-10 -3 -11 -7 0 -5 -4 -57 -9 -118 -5 -60 -12 -137 -15 -170 -5 -47 -4 -56 5
-42 7 10 9 29 6 42 -4 17 0 27 19 39 13 9 29 16 35 16 12 0 13 -37 1 -44 -5
-3 -14 -19 -19 -35 -10 -28 -9 -29 24 -29 l34 0 -6 51 c-3 29 -17 70 -29 92
-26 45 -44 135 -27 135 6 0 13 -18 17 -40 14 -82 24 -48 18 62 -4 80 -1 145
11 221 18 122 20 157 7 157 -5 0 -11 -10 -15 -22z m-33 -508 c3 -11 1 -23 -4
-26 -5 -3 -9 6 -9 20 0 31 6 34 13 6z"/>
<path d="M2940 645 c0 -15 4 -24 10 -20 6 3 10 12 10 20 0 8 -4 17 -10 20 -6
4 -10 -5 -10 -20z"/>
<path d="M2940 547 c0 -24 -3 -47 -7 -51 -5 -4 -8 -11 -8 -14 -1 -4 -6 -17
-14 -30 -7 -13 -11 -28 -9 -34 3 -7 16 12 31 42 27 53 37 130 17 130 -5 0 -10
-19 -10 -43z"/>
<path d="M2890 375 c0 -8 5 -15 10 -15 6 0 10 7 10 15 0 8 -4 15 -10 15 -5 0
-10 -7 -10 -15z"/>
<path d="M2940 341 c0 -5 10 -11 23 -13 18 -2 23 -11 28 -45 3 -24 8 -46 12
-49 9 -9 9 78 1 100 -7 17 -64 23 -64 7z"/>
<path d="M936 290 c12 -45 23 -68 34 -75 11 -7 -9 49 -30 82 -9 15 -10 14 -4
-7z"/>
<path d="M3360 270 c0 -4 27 -13 61 -20 45 -10 63 -10 72 -1 8 8 2 11 -23 11
-19 0 -52 4 -72 9 -21 5 -38 5 -38 1z"/>
<path d="M1560 232 c0 -13 28 -42 42 -42 15 0 4 22 -20 38 -13 8 -22 10 -22 4z"/>
<path d="M3002 200 c0 -14 2 -19 5 -12 2 6 2 18 0 25 -3 6 -5 1 -5 -13z"/>
<path d="M970 195 c0 -14 50 -94 54 -87 7 12 -25 80 -41 86 -7 3 -13 4 -13 1z"/>
<path d="M1935 130 c4 -14 15 -33 24 -44 57 -65 79 -86 94 -86 24 0 21 9 -17
46 -18 17 -42 43 -52 56 -11 12 -28 30 -38 38 -18 14 -18 13 -11 -10z"/>
<path d="M1040 71 c0 -12 5 -21 10 -21 6 0 10 6 10 14 0 8 -4 18 -10 21 -5 3
-10 -3 -10 -14z"/>
<path d="M4167 48 c6 -48 8 -52 20 -47 11 5 -5 89 -17 89 -4 0 -6 -19 -3 -42z"/>
</g>
</svg>
